<svg width="163" height="162" viewBox="0 0 163 162" fill="none" xmlns="http://www.w3.org/2000/svg">
<g clip-path="url(#clip0_1_11)">
<g filter="url(#filter0_dd_1_11)">
<rect width="163" height="162" rx="10" fill="#16A34A"/>
</g>
<mask id="path-2-outside-1_1_11" maskUnits="userSpaceOnUse" x="49" y="17" width="62" height="19" fill="black">
<rect fill="white" x="49" y="17" width="62" height="19"/>
<path d="M50.1591 19.4205V17.5455H63.25V19.4205H57.7614V35H55.6477V19.4205H50.1591ZM68.2507 27.125V35H66.2393V17.5455H68.2507V23.9545H68.4212C68.728 23.2784 69.1882 22.7415 69.8018 22.3438C70.4212 21.9403 71.245 21.7386 72.2734 21.7386C73.1655 21.7386 73.9467 21.9176 74.6172 22.2756C75.2876 22.6278 75.8075 23.1705 76.1768 23.9034C76.5518 24.6307 76.7393 25.5568 76.7393 26.6818V35H74.728V26.8182C74.728 25.7784 74.4581 24.9744 73.9183 24.4062C73.3842 23.8324 72.6428 23.5455 71.6939 23.5455C71.0348 23.5455 70.4439 23.6847 69.9212 23.9631C69.4041 24.2415 68.995 24.6477 68.6939 25.1818C68.3984 25.7159 68.2507 26.3636 68.2507 27.125ZM85.7372 35.2727C84.5554 35.2727 83.5185 34.9915 82.6264 34.429C81.7401 33.8665 81.0469 33.0795 80.5469 32.0682C80.0526 31.0568 79.8054 29.875 79.8054 28.5227C79.8054 27.1591 80.0526 25.9687 80.5469 24.9517C81.0469 23.9347 81.7401 23.1449 82.6264 22.5824C83.5185 22.0199 84.5554 21.7386 85.7372 21.7386C86.919 21.7386 87.9531 22.0199 88.8395 22.5824C89.7315 23.1449 90.4247 23.9347 90.919 24.9517C91.419 25.9687 91.669 27.1591 91.669 28.5227C91.669 29.875 91.419 31.0568 90.919 32.0682C90.4247 33.0795 89.7315 33.8665 88.8395 34.429C87.9531 34.9915 86.919 35.2727 85.7372 35.2727ZM85.7372 33.4659C86.6349 33.4659 87.3736 33.2358 87.9531 32.7756C88.5327 32.3153 88.9616 31.7102 89.2401 30.9602C89.5185 30.2102 89.6577 29.3977 89.6577 28.5227C89.6577 27.6477 89.5185 26.8324 89.2401 26.0767C88.9616 25.321 88.5327 24.7102 87.9531 24.2443C87.3736 23.7784 86.6349 23.5455 85.7372 23.5455C84.8395 23.5455 84.1009 23.7784 83.5213 24.2443C82.9418 24.7102 82.5128 25.321 82.2344 26.0767C81.956 26.8324 81.8168 27.6477 81.8168 28.5227C81.8168 29.3977 81.956 30.2102 82.2344 30.9602C82.5128 31.7102 82.9418 32.3153 83.5213 32.7756C84.1009 33.2358 84.8395 33.4659 85.7372 33.4659ZM96.7507 17.5455V35H94.7393V17.5455H96.7507ZM104.287 35.3068C103.457 35.3068 102.705 35.1506 102.028 34.8381C101.352 34.5199 100.815 34.0625 100.418 33.4659C100.02 32.8636 99.821 32.1364 99.821 31.2841C99.821 30.5341 99.9688 29.9261 100.264 29.4602C100.56 28.9886 100.955 28.6193 101.449 28.3523C101.943 28.0852 102.489 27.8864 103.085 27.7557C103.688 27.6193 104.293 27.5114 104.901 27.4318C105.696 27.3295 106.341 27.2528 106.835 27.2017C107.335 27.1449 107.699 27.0511 107.926 26.9205C108.159 26.7898 108.276 26.5625 108.276 26.2386V26.1705C108.276 25.3295 108.045 24.6761 107.585 24.2102C107.131 23.7443 106.44 23.5114 105.514 23.5114C104.554 23.5114 103.801 23.7216 103.256 24.142C102.71 24.5625 102.327 25.0114 102.105 25.4886L100.196 24.8068C100.537 24.0114 100.991 23.392 101.56 22.9489C102.134 22.5 102.759 22.1875 103.435 22.0114C104.116 21.8295 104.787 21.7386 105.446 21.7386C105.866 21.7386 106.349 21.7898 106.895 21.892C107.446 21.9886 107.977 22.1903 108.489 22.4972C109.006 22.804 109.435 23.267 109.776 23.8864C110.116 24.5057 110.287 25.3352 110.287 26.375V35H108.276V33.2273H108.173C108.037 33.5114 107.81 33.8153 107.491 34.1392C107.173 34.4631 106.75 34.7386 106.222 34.9659C105.693 35.1932 105.048 35.3068 104.287 35.3068ZM104.594 33.5C105.389 33.5 106.06 33.3438 106.605 33.0312C107.156 32.7188 107.571 32.3153 107.849 31.821C108.134 31.3267 108.276 30.8068 108.276 30.2614V28.4205C108.19 28.5227 108.003 28.6165 107.713 28.7017C107.429 28.7812 107.099 28.8523 106.724 28.9148C106.355 28.9716 105.994 29.0227 105.642 29.0682C105.295 29.108 105.014 29.142 104.798 29.1705C104.276 29.2386 103.787 29.3494 103.332 29.5028C102.884 29.6506 102.52 29.875 102.241 30.1761C101.969 30.4716 101.832 30.875 101.832 31.3864C101.832 32.0852 102.091 32.6136 102.608 32.9716C103.131 33.3239 103.793 33.5 104.594 33.5Z"/>
</mask>
<path d="M50.1591 19.4205V17.5455H63.25V19.4205H57.7614V35H55.6477V19.4205H50.1591ZM68.2507 27.125V35H66.2393V17.5455H68.2507V23.9545H68.4212C68.728 23.2784 69.1882 22.7415 69.8018 22.3438C70.4212 21.9403 71.245 21.7386 72.2734 21.7386C73.1655 21.7386 73.9467 21.9176 74.6172 22.2756C75.2876 22.6278 75.8075 23.1705 76.1768 23.9034C76.5518 24.6307 76.7393 25.5568 76.7393 26.6818V35H74.728V26.8182C74.728 25.7784 74.4581 24.9744 73.9183 24.4062C73.3842 23.8324 72.6428 23.5455 71.6939 23.5455C71.0348 23.5455 70.4439 23.6847 69.9212 23.9631C69.4041 24.2415 68.995 24.6477 68.6939 25.1818C68.3984 25.7159 68.2507 26.3636 68.2507 27.125ZM85.7372 35.2727C84.5554 35.2727 83.5185 34.9915 82.6264 34.429C81.7401 33.8665 81.0469 33.0795 80.5469 32.0682C80.0526 31.0568 79.8054 29.875 79.8054 28.5227C79.8054 27.1591 80.0526 25.9687 80.5469 24.9517C81.0469 23.9347 81.7401 23.1449 82.6264 22.5824C83.5185 22.0199 84.5554 21.7386 85.7372 21.7386C86.919 21.7386 87.9531 22.0199 88.8395 22.5824C89.7315 23.1449 90.4247 23.9347 90.919 24.9517C91.419 25.9687 91.669 27.1591 91.669 28.5227C91.669 29.875 91.419 31.0568 90.919 32.0682C90.4247 33.0795 89.7315 33.8665 88.8395 34.429C87.9531 34.9915 86.919 35.2727 85.7372 35.2727ZM85.7372 33.4659C86.6349 33.4659 87.3736 33.2358 87.9531 32.7756C88.5327 32.3153 88.9616 31.7102 89.2401 30.9602C89.5185 30.2102 89.6577 29.3977 89.6577 28.5227C89.6577 27.6477 89.5185 26.8324 89.2401 26.0767C88.9616 25.321 88.5327 24.7102 87.9531 24.2443C87.3736 23.7784 86.6349 23.5455 85.7372 23.5455C84.8395 23.5455 84.1009 23.7784 83.5213 24.2443C82.9418 24.7102 82.5128 25.321 82.2344 26.0767C81.956 26.8324 81.8168 27.6477 81.8168 28.5227C81.8168 29.3977 81.956 30.2102 82.2344 30.9602C82.5128 31.7102 82.9418 32.3153 83.5213 32.7756C84.1009 33.2358 84.8395 33.4659 85.7372 33.4659ZM96.7507 17.5455V35H94.7393V17.5455H96.7507ZM104.287 35.3068C103.457 35.3068 102.705 35.1506 102.028 34.8381C101.352 34.5199 100.815 34.0625 100.418 33.4659C100.02 32.8636 99.821 32.1364 99.821 31.2841C99.821 30.5341 99.9688 29.9261 100.264 29.4602C100.56 28.9886 100.955 28.6193 101.449 28.3523C101.943 28.0852 102.489 27.8864 103.085 27.7557C103.688 27.6193 104.293 27.5114 104.901 27.4318C105.696 27.3295 106.341 27.2528 106.835 27.2017C107.335 27.1449 107.699 27.0511 107.926 26.9205C108.159 26.7898 108.276 26.5625 108.276 26.2386V26.1705C108.276 25.3295 108.045 24.6761 107.585 24.2102C107.131 23.7443 106.44 23.5114 105.514 23.5114C104.554 23.5114 103.801 23.7216 103.256 24.142C102.71 24.5625 102.327 25.0114 102.105 25.4886L100.196 24.8068C100.537 24.0114 100.991 23.392 101.56 22.9489C102.134 22.5 102.759 22.1875 103.435 22.0114C104.116 21.8295 104.787 21.7386 105.446 21.7386C105.866 21.7386 106.349 21.7898 106.895 21.892C107.446 21.9886 107.977 22.1903 108.489 22.4972C109.006 22.804 109.435 23.267 109.776 23.8864C110.116 24.5057 110.287 25.3352 110.287 26.375V35H108.276V33.2273H108.173C108.037 33.5114 107.81 33.8153 107.491 34.1392C107.173 34.4631 106.75 34.7386 106.222 34.9659C105.693 35.1932 105.048 35.3068 104.287 35.3068ZM104.594 33.5C105.389 33.5 106.06 33.3438 106.605 33.0312C107.156 32.7188 107.571 32.3153 107.849 31.821C108.134 31.3267 108.276 30.8068 108.276 30.2614V28.4205C108.19 28.5227 108.003 28.6165 107.713 28.7017C107.429 28.7812 107.099 28.8523 106.724 28.9148C106.355 28.9716 105.994 29.0227 105.642 29.0682C105.295 29.108 105.014 29.142 104.798 29.1705C104.276 29.2386 103.787 29.3494 103.332 29.5028C102.884 29.6506 102.52 29.875 102.241 30.1761C101.969 30.4716 101.832 30.875 101.832 31.3864C101.832 32.0852 102.091 32.6136 102.608 32.9716C103.131 33.3239 103.793 33.5 104.594 33.5Z" fill="#BDFED5"/>
<path d="M50.1591 19.4205H49.9591V19.6205H50.1591V19.4205ZM50.1591 17.5455V17.3455H49.9591V17.5455H50.1591ZM63.25 17.5455H63.45V17.3455H63.25V17.5455ZM63.25 19.4205V19.6205H63.45V19.4205H63.25ZM57.7614 19.4205V19.2205H57.5614V19.4205H57.7614ZM57.7614 35V35.2H57.9614V35H57.7614ZM55.6477 35H55.4477V35.2H55.6477V35ZM55.6477 19.4205H55.8477V19.2205H55.6477V19.4205ZM50.3591 19.4205V17.5455H49.9591V19.4205H50.3591ZM50.1591 17.7455H63.25V17.3455H50.1591V17.7455ZM63.05 17.5455V19.4205H63.45V17.5455H63.05ZM63.25 19.2205H57.7614V19.6205H63.25V19.2205ZM57.5614 19.4205V35H57.9614V19.4205H57.5614ZM57.7614 34.8H55.6477V35.2H57.7614V34.8ZM55.8477 35V19.4205H55.4477V35H55.8477ZM55.6477 19.2205H50.1591V19.6205H55.6477V19.2205ZM68.2507 35V35.2H68.4507V35H68.2507ZM66.2393 35H66.0393V35.2H66.2393V35ZM66.2393 17.5455V17.3455H66.0393V17.5455H66.2393ZM68.2507 17.5455H68.4507V17.3455H68.2507V17.5455ZM68.2507 23.9545H68.0507V24.1545H68.2507V23.9545ZM68.4212 23.9545V24.1545H68.55L68.6033 24.0372L68.4212 23.9545ZM69.8018 22.3438L69.9106 22.5116L69.911 22.5113L69.8018 22.3438ZM74.6172 22.2756L74.523 22.452L74.5242 22.4526L74.6172 22.2756ZM76.1768 23.9034L75.9982 23.9934L75.9991 23.9951L76.1768 23.9034ZM76.7393 35V35.2H76.9393V35H76.7393ZM74.728 35H74.528V35.2H74.728V35ZM73.9183 24.4062L73.7719 24.5425L73.7733 24.544L73.9183 24.4062ZM69.9212 23.9631L69.8271 23.7865L69.8263 23.787L69.9212 23.9631ZM68.6939 25.1818L68.5197 25.0836L68.5189 25.085L68.6939 25.1818ZM68.0507 27.125V35H68.4507V27.125H68.0507ZM68.2507 34.8H66.2393V35.2H68.2507V34.8ZM66.4393 35V17.5455H66.0393V35H66.4393ZM66.2393 17.7455H68.2507V17.3455H66.2393V17.7455ZM68.0507 17.5455V23.9545H68.4507V17.5455H68.0507ZM68.2507 24.1545H68.4212V23.7545H68.2507V24.1545ZM68.6033 24.0372C68.8946 23.3953 69.3296 22.8882 69.9106 22.5116L69.6931 22.1759C69.0468 22.5948 68.5614 23.1615 68.239 23.8719L68.6033 24.0372ZM69.911 22.5113C70.4875 22.1358 71.2692 21.9386 72.2734 21.9386V21.5386C71.2209 21.5386 70.3549 21.7448 69.6927 22.1762L69.911 22.5113ZM72.2734 21.9386C73.1383 21.9386 73.8862 22.112 74.523 22.452L74.7114 22.0991C74.0073 21.7232 73.1926 21.5386 72.2734 21.5386V21.9386ZM74.5242 22.4526C75.1546 22.7839 75.646 23.2944 75.9982 23.9934L76.3555 23.8134C75.969 23.0465 75.4207 22.4718 74.7102 22.0985L74.5242 22.4526ZM75.9991 23.9951C76.355 24.6854 76.5393 25.5774 76.5393 26.6818H76.9393C76.9393 25.5363 76.7487 24.576 76.3546 23.8118L75.9991 23.9951ZM76.5393 26.6818V35H76.9393V26.6818H76.5393ZM76.7393 34.8H74.728V35.2H76.7393V34.8ZM74.928 35V26.8182H74.528V35H74.928ZM74.928 26.8182C74.928 25.7443 74.6487 24.8847 74.0633 24.2685L73.7733 24.544C74.2675 25.0642 74.528 25.8125 74.528 26.8182H74.928ZM74.0647 24.27C73.485 23.6471 72.6857 23.3455 71.6939 23.3455V23.7455C72.5998 23.7455 73.2835 24.0177 73.7719 24.5425L74.0647 24.27ZM71.6939 23.3455C71.0058 23.3455 70.382 23.491 69.8271 23.7865L70.0152 24.1396C70.5058 23.8783 71.0638 23.7455 71.6939 23.7455V23.3455ZM69.8263 23.787C69.2745 24.0841 68.8385 24.5181 68.5197 25.0836L68.8681 25.28C69.1515 24.7774 69.5337 24.3988 70.016 24.1392L69.8263 23.787ZM68.5189 25.085C68.2035 25.6552 68.0507 26.338 68.0507 27.125H68.4507C68.4507 26.3892 68.5934 25.7766 68.8689 25.2786L68.5189 25.085ZM82.6264 34.429L82.5193 34.5978L82.5197 34.5982L82.6264 34.429ZM80.5469 32.0682L80.3672 32.156L80.3676 32.1568L80.5469 32.0682ZM80.5469 24.9517L80.3674 24.8635L80.367 24.8643L80.5469 24.9517ZM82.6264 22.5824L82.5197 22.4132L82.5193 22.4135L82.6264 22.5824ZM88.8395 22.5824L88.7323 22.7513L88.7328 22.7516L88.8395 22.5824ZM90.919 24.9517L90.7392 25.0391L90.7396 25.0399L90.919 24.9517ZM90.919 32.0682L90.7397 31.9795L90.7393 31.9804L90.919 32.0682ZM88.8395 34.429L88.7328 34.2598L88.7323 34.2601L88.8395 34.429ZM87.9531 32.7756L87.8287 32.6189L87.8287 32.6189L87.9531 32.7756ZM89.2401 30.9602L89.4276 31.0298L89.4276 31.0298L89.2401 30.9602ZM89.2401 26.0767L89.4277 26.0076L89.4277 26.0076L89.2401 26.0767ZM87.9531 24.2443L88.0784 24.0884L88.0784 24.0884L87.9531 24.2443ZM83.5213 24.2443L83.396 24.0884L83.396 24.0884L83.5213 24.2443ZM82.2344 26.0767L82.0467 26.0076L82.0467 26.0076L82.2344 26.0767ZM82.2344 30.9602L82.0469 31.0298L82.0469 31.0298L82.2344 30.9602ZM83.5213 32.7756L83.6457 32.6189L83.6457 32.6189L83.5213 32.7756ZM85.7372 35.0727C84.5885 35.0727 83.5895 34.7998 82.7331 34.2598L82.5197 34.5982C83.4475 35.1832 84.5223 35.4727 85.7372 35.4727V35.0727ZM82.7336 34.2601C81.8805 33.7187 81.2112 32.9606 80.7262 31.9795L80.3676 32.1568C80.8826 33.1985 81.5996 34.0142 82.5193 34.5978L82.7336 34.2601ZM80.7266 31.9804C80.248 31.0013 80.0054 29.8506 80.0054 28.5227H79.6054C79.6054 29.8994 79.8571 31.1123 80.3672 32.156L80.7266 31.9804ZM80.0054 28.5227C80.0054 27.1832 80.2481 26.0239 80.7268 25.0391L80.367 24.8643C79.857 25.9136 79.6054 27.135 79.6054 28.5227H80.0054ZM80.7264 25.0399C81.2115 24.0532 81.8808 23.2925 82.7336 22.7513L82.5193 22.4135C81.5994 22.9973 80.8823 23.8161 80.3674 24.8635L80.7264 25.0399ZM82.7331 22.7516C83.5895 22.2116 84.5885 21.9386 85.7372 21.9386V21.5386C84.5223 21.5386 83.4475 21.8282 82.5197 22.4132L82.7331 22.7516ZM85.7372 21.9386C86.886 21.9386 87.8819 22.2116 88.7323 22.7513L88.9467 22.4135C88.0243 21.8282 86.9521 21.5386 85.7372 21.5386V21.9386ZM88.7328 22.7516C89.591 23.2927 90.2599 24.0531 90.7392 25.0391L91.0989 24.8643C90.5895 23.8162 89.872 22.997 88.9462 22.4132L88.7328 22.7516ZM90.7396 25.0399C91.2236 26.0245 91.469 27.1835 91.469 28.5227H91.869C91.869 27.1346 91.6145 25.913 91.0985 24.8635L90.7396 25.0399ZM91.469 28.5227C91.469 29.8503 91.2237 31.0007 90.7397 31.9795L91.0983 32.1568C91.6144 31.1129 91.869 29.8997 91.869 28.5227H91.469ZM90.7393 31.9804C90.2602 32.9607 89.5913 33.7185 88.7328 34.2598L88.9462 34.5982C89.8718 34.0145 90.5892 33.1984 91.0987 32.156L90.7393 31.9804ZM88.7323 34.2601C87.8819 34.7998 86.886 35.0727 85.7372 35.0727V35.4727C86.9521 35.4727 88.0243 35.1832 88.9467 34.5978L88.7323 34.2601ZM85.7372 33.6659C86.6702 33.6659 87.4555 33.4261 88.0775 32.9322L87.8287 32.6189C87.2916 33.0455 86.5997 33.2659 85.7372 33.2659V33.6659ZM88.0775 32.9322C88.6879 32.4474 89.1375 31.8112 89.4276 31.0298L89.0526 30.8906C88.7858 31.6093 88.3774 32.1833 87.8287 32.6189L88.0775 32.9322ZM89.4276 31.0298C89.715 30.2556 89.8577 29.4193 89.8577 28.5227H89.4577C89.4577 29.3762 89.322 30.1649 89.0526 30.8906L89.4276 31.0298ZM89.8577 28.5227C89.8577 27.6262 89.715 26.7872 89.4277 26.0076L89.0524 26.1458C89.322 26.8775 89.4577 27.6693 89.4577 28.5227H89.8577ZM89.4277 26.0076C89.1379 25.2208 88.6886 24.579 88.0784 24.0884L87.8278 24.4002C88.3768 24.8415 88.7854 25.4213 89.0524 26.1458L89.4277 26.0076ZM88.0784 24.0884C87.4564 23.5884 86.6707 23.3455 85.7372 23.3455V23.7455C86.5991 23.7455 87.2907 23.9684 87.8278 24.4002L88.0784 24.0884ZM85.7372 23.3455C84.8037 23.3455 84.018 23.5884 83.396 24.0884L83.6466 24.4002C84.1837 23.9684 84.8753 23.7455 85.7372 23.7455V23.3455ZM83.396 24.0884C82.7859 24.579 82.3366 25.2208 82.0467 26.0076L82.422 26.1458C82.689 25.4213 83.0977 24.8415 83.6466 24.4002L83.396 24.0884ZM82.0467 26.0076C81.7595 26.7872 81.6168 27.6262 81.6168 28.5227H82.0168C82.0168 27.6693 82.1525 26.8775 82.422 26.1458L82.0467 26.0076ZM81.6168 28.5227C81.6168 29.4193 81.7595 30.2556 82.0469 31.0298L82.4219 30.8906C82.1525 30.1649 82.0168 29.3762 82.0168 28.5227H81.6168ZM82.0469 31.0298C82.3369 31.8112 82.7865 32.4474 83.3969 32.9322L83.6457 32.6189C83.097 32.1833 82.6886 31.6093 82.4219 30.8906L82.0469 31.0298ZM83.3969 32.9322C84.0189 33.4261 84.8043 33.6659 85.7372 33.6659V33.2659C84.8747 33.2659 84.1828 33.0455 83.6457 32.6189L83.3969 32.9322ZM96.7507 17.5455H96.9507V17.3455H96.7507V17.5455ZM96.7507 35V35.2H96.9507V35H96.7507ZM94.7393 35H94.5393V35.2H94.7393V35ZM94.7393 17.5455V17.3455H94.5393V17.5455H94.7393ZM96.5507 17.5455V35H96.9507V17.5455H96.5507ZM96.7507 34.8H94.7393V35.2H96.7507V34.8ZM94.9393 35V17.5455H94.5393V35H94.9393ZM94.7393 17.7455H96.7507V17.3455H94.7393V17.7455ZM102.028 34.8381L101.943 35.019L101.945 35.0196L102.028 34.8381ZM100.418 33.4659L100.251 33.5761L100.251 33.5768L100.418 33.4659ZM100.264 29.4602L100.433 29.5673L100.434 29.5664L100.264 29.4602ZM103.085 27.7557L103.128 27.9511L103.129 27.9507L103.085 27.7557ZM104.901 27.4318L104.875 27.2335L104.875 27.2335L104.901 27.4318ZM106.835 27.2017L106.856 27.4007L106.858 27.4004L106.835 27.2017ZM107.926 26.9205L107.828 26.746L107.826 26.7471L107.926 26.9205ZM107.585 24.2102L107.442 24.3499L107.443 24.3508L107.585 24.2102ZM103.256 24.142L103.378 24.3004L103.378 24.3004L103.256 24.142ZM102.105 25.4886L102.038 25.677L102.21 25.7384L102.287 25.5729L102.105 25.4886ZM100.196 24.8068L100.012 24.728L99.9284 24.9236L100.129 24.9952L100.196 24.8068ZM101.56 22.9489L101.683 23.1066L101.683 23.1064L101.56 22.9489ZM103.435 22.0114L103.485 22.2049L103.486 22.2046L103.435 22.0114ZM106.895 21.892L106.858 22.0886L106.86 22.089L106.895 21.892ZM108.489 22.4972L108.386 22.6687L108.387 22.6692L108.489 22.4972ZM109.776 23.8864L109.6 23.9828L109.6 23.9828L109.776 23.8864ZM110.287 35V35.2H110.487V35H110.287ZM108.276 35H108.076V35.2H108.276V35ZM108.276 33.2273H108.476V33.0273H108.276V33.2273ZM108.173 33.2273V33.0273H108.047L107.993 33.1407L108.173 33.2273ZM107.491 34.1392L107.634 34.2794L107.634 34.2794L107.491 34.1392ZM106.222 34.9659L106.143 34.7822L106.143 34.7822L106.222 34.9659ZM106.605 33.0312L106.506 32.8573L106.506 32.8577L106.605 33.0312ZM107.849 31.821L107.676 31.7214L107.675 31.7229L107.849 31.821ZM108.276 28.4205H108.476V27.868L108.122 28.2924L108.276 28.4205ZM107.713 28.7017L107.767 28.8943L107.77 28.8936L107.713 28.7017ZM106.724 28.9148L106.755 29.1125L106.757 29.1121L106.724 28.9148ZM105.642 29.0682L105.665 29.2669L105.668 29.2665L105.642 29.0682ZM104.798 29.1705L104.824 29.3688L104.824 29.3687L104.798 29.1705ZM103.332 29.5028L103.395 29.6928L103.396 29.6923L103.332 29.5028ZM102.241 30.1761L102.095 30.0404L102.095 30.0405L102.241 30.1761ZM102.608 32.9716L102.494 33.136L102.496 33.1374L102.608 32.9716ZM104.287 35.1068C103.483 35.1068 102.759 34.9555 102.112 34.6565L101.945 35.0196C102.65 35.3456 103.432 35.5068 104.287 35.5068V35.1068ZM102.114 34.6571C101.469 34.3537 100.961 33.9199 100.584 33.355L100.251 33.5768C100.67 34.2051 101.236 34.686 101.943 35.019L102.114 34.6571ZM100.585 33.3557C100.212 32.7917 100.021 32.1044 100.021 31.2841H99.621C99.621 32.1683 99.8277 32.9356 100.251 33.5761L100.585 33.3557ZM100.021 31.2841C100.021 30.5588 100.164 29.9916 100.433 29.5673L100.095 29.3531C99.7735 29.8606 99.621 30.5094 99.621 31.2841H100.021ZM100.434 29.5664C100.711 29.1244 101.08 28.779 101.544 28.5282L101.354 28.1763C100.829 28.4596 100.409 28.8529 100.095 29.354L100.434 29.5664ZM101.544 28.5282C102.02 28.2708 102.548 28.0781 103.128 27.951L103.042 27.5603C102.429 27.6946 101.866 27.8997 101.354 28.1763L101.544 28.5282ZM103.129 27.9507C103.726 27.8157 104.325 27.7089 104.927 27.6301L104.875 27.2335C104.261 27.3139 103.649 27.4229 103.041 27.5606L103.129 27.9507ZM104.926 27.6302C105.721 27.528 106.364 27.4515 106.856 27.4006L106.815 27.0028C106.318 27.0541 105.671 27.1311 104.875 27.2335L104.926 27.6302ZM106.858 27.4004C107.365 27.3428 107.762 27.2456 108.026 27.0938L107.826 26.7471C107.636 26.8567 107.306 26.9469 106.813 27.003L106.858 27.4004ZM108.024 27.0949C108.334 26.9207 108.476 26.6167 108.476 26.2386H108.076C108.076 26.5083 107.984 26.6588 107.828 26.746L108.024 27.0949ZM108.476 26.2386V26.1705H108.076V26.2386H108.476ZM108.476 26.1705C108.476 25.2925 108.234 24.5828 107.728 24.0697L107.443 24.3508C107.857 24.7694 108.076 25.3665 108.076 26.1705H108.476ZM107.728 24.0706C107.223 23.5522 106.471 23.3114 105.514 23.3114V23.7114C106.41 23.7114 107.039 23.9364 107.442 24.3499L107.728 24.0706ZM105.514 23.3114C104.527 23.3114 103.725 23.5274 103.134 23.9836L103.378 24.3004C103.877 23.9158 104.581 23.7114 105.514 23.7114V23.3114ZM103.134 23.9836C102.57 24.4179 102.162 24.8904 101.924 25.4044L102.287 25.5729C102.491 25.1323 102.85 24.7071 103.378 24.3004L103.134 23.9836ZM102.172 25.3003L100.263 24.6185L100.129 24.9952L102.038 25.677L102.172 25.3003ZM100.38 24.8856C100.71 24.1149 101.146 23.5252 101.683 23.1066L101.437 22.7912C100.837 23.2589 100.364 23.9078 100.012 24.728L100.38 24.8856ZM101.683 23.1064C102.236 22.6737 102.837 22.3738 103.485 22.2049L103.384 21.8178C102.68 22.0012 102.031 22.3263 101.436 22.7913L101.683 23.1064ZM103.486 22.2046C104.152 22.027 104.806 21.9386 105.446 21.9386V21.5386C104.768 21.5386 104.081 21.6321 103.383 21.8181L103.486 22.2046ZM105.446 21.9386C105.851 21.9386 106.321 21.9879 106.858 22.0886L106.932 21.6955C106.378 21.5916 105.882 21.5386 105.446 21.5386V21.9386ZM106.86 22.089C107.386 22.1811 107.894 22.3736 108.386 22.6687L108.592 22.3257C108.061 22.0071 107.506 21.7961 106.929 21.695L106.86 22.089ZM108.387 22.6692C108.868 22.9548 109.274 23.3892 109.6 23.9828L109.951 23.7899C109.596 23.1449 109.143 22.6532 108.591 22.3252L108.387 22.6692ZM109.6 23.9828C109.919 24.5619 110.087 25.3542 110.087 26.375H110.487C110.487 25.3163 110.314 24.4495 109.951 23.7899L109.6 23.9828ZM110.087 26.375V35H110.487V26.375H110.087ZM110.287 34.8H108.276V35.2H110.287V34.8ZM108.476 35V33.2273H108.076V35H108.476ZM108.276 33.0273H108.173V33.4273H108.276V33.0273ZM107.993 33.1407C107.869 33.3984 107.658 33.6846 107.349 33.999L107.634 34.2794C107.962 33.9461 108.205 33.6244 108.354 33.3138L107.993 33.1407ZM107.349 33.999C107.053 34.3002 106.653 34.5625 106.143 34.7822L106.301 35.1496C106.847 34.9147 107.294 34.626 107.634 34.2794L107.349 33.999ZM106.143 34.7822C105.646 34.9958 105.029 35.1068 104.287 35.1068V35.5068C105.067 35.5068 105.741 35.3905 106.301 35.1496L106.143 34.7822ZM104.594 33.7C105.415 33.7 106.122 33.5387 106.705 33.2048L106.506 32.8577C105.998 33.1488 105.363 33.3 104.594 33.3V33.7ZM106.704 33.2052C107.283 32.8769 107.725 32.4488 108.024 31.9192L107.675 31.7229C107.417 32.1819 107.03 32.5606 106.506 32.8573L106.704 33.2052ZM108.023 31.9207C108.324 31.3975 108.476 30.8434 108.476 30.2614H108.076C108.076 30.7702 107.944 31.2559 107.676 31.7214L108.023 31.9207ZM108.476 30.2614V28.4205H108.076V30.2614H108.476ZM108.122 28.2924C108.104 28.3137 108.063 28.3477 107.982 28.3886C107.902 28.4284 107.795 28.4692 107.657 28.5098L107.77 28.8936C107.921 28.8489 108.053 28.8003 108.16 28.7464C108.266 28.6935 108.362 28.6295 108.429 28.5485L108.122 28.2924ZM107.659 28.5091C107.384 28.5863 107.061 28.6559 106.692 28.7175L106.757 29.1121C107.137 29.0487 107.474 28.9762 107.767 28.8943L107.659 28.5091ZM106.694 28.7171C106.326 28.7737 105.967 28.8246 105.616 28.8698L105.668 29.2665C106.022 29.2209 106.384 29.1695 106.755 29.1124L106.694 28.7171ZM105.619 28.8695C105.272 28.9093 104.99 28.9436 104.772 28.9722L104.824 29.3687C105.039 29.3405 105.319 29.3066 105.665 29.2669L105.619 28.8695ZM104.772 28.9721C104.238 29.0418 103.737 29.1554 103.268 29.3133L103.396 29.6923C103.837 29.5435 104.313 29.4354 104.824 29.3688L104.772 28.9721ZM103.27 29.3129C102.794 29.4696 102.399 29.7107 102.095 30.0404L102.388 30.3119C102.64 30.0393 102.973 29.8316 103.395 29.6928L103.27 29.3129ZM102.095 30.0405C101.779 30.3821 101.632 30.8389 101.632 31.3864H102.032C102.032 30.9111 102.158 30.5611 102.388 30.3118L102.095 30.0405ZM101.632 31.3864C101.632 32.1423 101.916 32.7361 102.494 33.136L102.722 32.8072C102.265 32.4912 102.032 32.0281 102.032 31.3864H101.632ZM102.496 33.1374C103.06 33.5173 103.764 33.7 104.594 33.7V33.3C103.822 33.3 103.202 33.1304 102.72 32.8057L102.496 33.1374Z" fill="#BDFED5" mask="url(#path-2-outside-1_1_11)"/>
<mask id="path-4-outside-2_1_11" maskUnits="userSpaceOnUse" x="15" y="125" width="140" height="25" fill="black">
<rect fill="white" x="15" y="125" width="140" height="25"/>
<path d="M16.1136 144V126.545H18.2273V135.205H18.4318L26.2727 126.545H29.0341L21.7045 134.42L29.0341 144H26.4773L20.4091 135.886L18.2273 138.341V144H16.1136ZM32.3175 144V130.909H34.3288V144H32.3175ZM33.3402 128.727C32.9482 128.727 32.6101 128.594 32.326 128.327C32.0476 128.06 31.9084 127.739 31.9084 127.364C31.9084 126.989 32.0476 126.668 32.326 126.401C32.6101 126.134 32.9482 126 33.3402 126C33.7322 126 34.0675 126.134 34.3459 126.401C34.63 126.668 34.772 126.989 34.772 127.364C34.772 127.739 34.63 128.06 34.3459 128.327C34.0675 128.594 33.7322 128.727 33.3402 128.727ZM38.0128 144V130.909H39.956V132.955H40.1264C40.3991 132.256 40.8395 131.713 41.4474 131.327C42.0554 130.935 42.7855 130.739 43.6378 130.739C44.5014 130.739 45.2202 130.935 45.794 131.327C46.3736 131.713 46.8253 132.256 47.1491 132.955H47.2855C47.6207 132.278 48.1236 131.741 48.794 131.344C49.4645 130.94 50.2685 130.739 51.206 130.739C52.3764 130.739 53.3338 131.105 54.0781 131.838C54.8224 132.565 55.1946 133.699 55.1946 135.239V144H53.1832V135.239C53.1832 134.273 52.919 133.582 52.3906 133.168C51.8622 132.753 51.2401 132.545 50.5241 132.545C49.6037 132.545 48.8906 132.824 48.3849 133.381C47.8793 133.932 47.6264 134.631 47.6264 135.477V144H45.581V135.034C45.581 134.29 45.3395 133.69 44.8565 133.236C44.3736 132.776 43.7514 132.545 42.9901 132.545C42.4673 132.545 41.9787 132.685 41.5241 132.963C41.0753 133.241 40.7116 133.628 40.4332 134.122C40.1605 134.611 40.0241 135.176 40.0241 135.818V144H38.0128ZM64.1903 144.273C63.0085 144.273 61.9716 143.991 61.0795 143.429C60.1932 142.866 59.5 142.08 59 141.068C58.5057 140.057 58.2585 138.875 58.2585 137.523C58.2585 136.159 58.5057 134.969 59 133.952C59.5 132.935 60.1932 132.145 61.0795 131.582C61.9716 131.02 63.0085 130.739 64.1903 130.739C65.3722 130.739 66.4063 131.02 67.2926 131.582C68.1847 132.145 68.8778 132.935 69.3722 133.952C69.8722 134.969 70.1222 136.159 70.1222 137.523C70.1222 138.875 69.8722 140.057 69.3722 141.068C68.8778 142.08 68.1847 142.866 67.2926 143.429C66.4063 143.991 65.3722 144.273 64.1903 144.273ZM64.1903 142.466C65.0881 142.466 65.8267 142.236 66.4062 141.776C66.9858 141.315 67.4148 140.71 67.6932 139.96C67.9716 139.21 68.1108 138.398 68.1108 137.523C68.1108 136.648 67.9716 135.832 67.6932 135.077C67.4148 134.321 66.9858 133.71 66.4062 133.244C65.8267 132.778 65.0881 132.545 64.1903 132.545C63.2926 132.545 62.554 132.778 61.9744 133.244C61.3949 133.71 60.9659 134.321 60.6875 135.077C60.4091 135.832 60.2699 136.648 60.2699 137.523C60.2699 138.398 60.4091 139.21 60.6875 139.96C60.9659 140.71 61.3949 141.315 61.9744 141.776C62.554 142.236 63.2926 142.466 64.1903 142.466ZM75.2038 136.125V144H73.1925V130.909H75.1357V132.955H75.3061C75.6129 132.29 76.0788 131.756 76.7038 131.352C77.3288 130.943 78.1357 130.739 79.1243 130.739C80.0107 130.739 80.7862 130.92 81.451 131.284C82.1158 131.642 82.6328 132.188 83.0021 132.92C83.3714 133.648 83.5561 134.568 83.5561 135.682V144H81.5447V135.818C81.5447 134.79 81.2777 133.989 80.7436 133.415C80.2095 132.835 79.4766 132.545 78.5447 132.545C77.9027 132.545 77.3288 132.685 76.8232 132.963C76.3232 133.241 75.9283 133.648 75.6385 134.182C75.3487 134.716 75.2038 135.364 75.2038 136.125ZM92.5156 149.182C91.544 149.182 90.7088 149.057 90.0099 148.807C89.3111 148.562 88.7287 148.239 88.2628 147.835C87.8026 147.438 87.4361 147.011 87.1634 146.557L88.7656 145.432C88.9474 145.67 89.1776 145.943 89.456 146.25C89.7344 146.562 90.1151 146.832 90.598 147.06C91.0866 147.293 91.7259 147.409 92.5156 147.409C93.5724 147.409 94.4446 147.153 95.1321 146.642C95.8196 146.131 96.1634 145.33 96.1634 144.239V141.58H95.9929C95.8452 141.818 95.6349 142.114 95.3622 142.466C95.0952 142.812 94.7088 143.122 94.2031 143.395C93.7031 143.662 93.027 143.795 92.1747 143.795C91.1179 143.795 90.169 143.545 89.3281 143.045C88.4929 142.545 87.831 141.818 87.3423 140.864C86.8594 139.909 86.6179 138.75 86.6179 137.386C86.6179 136.045 86.8537 134.878 87.3253 133.884C87.7969 132.884 88.4531 132.111 89.294 131.565C90.1349 131.014 91.1065 130.739 92.2088 130.739C93.0611 130.739 93.7372 130.881 94.2372 131.165C94.7429 131.443 95.1293 131.761 95.3963 132.119C95.669 132.472 95.8793 132.761 96.027 132.989H96.2315V130.909H98.1747V144.375C98.1747 145.5 97.919 146.415 97.4077 147.119C96.902 147.83 96.2202 148.349 95.3622 148.679C94.5099 149.014 93.5611 149.182 92.5156 149.182ZM92.4474 141.989C93.2543 141.989 93.9361 141.804 94.4929 141.435C95.0497 141.065 95.473 140.534 95.7628 139.841C96.0526 139.148 96.1974 138.318 96.1974 137.352C96.1974 136.409 96.0554 135.577 95.7713 134.855C95.4872 134.134 95.0668 133.568 94.5099 133.159C93.9531 132.75 93.2656 132.545 92.4474 132.545C91.5952 132.545 90.8849 132.761 90.3168 133.193C89.7543 133.625 89.331 134.205 89.0469 134.932C88.7685 135.659 88.6293 136.466 88.6293 137.352C88.6293 138.261 88.7713 139.065 89.0554 139.764C89.3452 140.457 89.7713 141.003 90.3338 141.401C90.902 141.793 91.6065 141.989 92.4474 141.989ZM105.709 144.307C104.879 144.307 104.126 144.151 103.45 143.838C102.774 143.52 102.237 143.062 101.839 142.466C101.442 141.864 101.243 141.136 101.243 140.284C101.243 139.534 101.391 138.926 101.686 138.46C101.982 137.989 102.376 137.619 102.871 137.352C103.365 137.085 103.911 136.886 104.507 136.756C105.109 136.619 105.714 136.511 106.322 136.432C107.118 136.33 107.763 136.253 108.257 136.202C108.757 136.145 109.121 136.051 109.348 135.92C109.581 135.79 109.697 135.562 109.697 135.239V135.17C109.697 134.33 109.467 133.676 109.007 133.21C108.553 132.744 107.862 132.511 106.936 132.511C105.976 132.511 105.223 132.722 104.678 133.142C104.132 133.562 103.749 134.011 103.527 134.489L101.618 133.807C101.959 133.011 102.413 132.392 102.982 131.949C103.555 131.5 104.18 131.187 104.857 131.011C105.538 130.83 106.209 130.739 106.868 130.739C107.288 130.739 107.771 130.79 108.317 130.892C108.868 130.989 109.399 131.19 109.911 131.497C110.428 131.804 110.857 132.267 111.197 132.886C111.538 133.506 111.709 134.335 111.709 135.375V144H109.697V142.227H109.595C109.459 142.511 109.232 142.815 108.913 143.139C108.595 143.463 108.172 143.739 107.643 143.966C107.115 144.193 106.47 144.307 105.709 144.307ZM106.016 142.5C106.811 142.5 107.482 142.344 108.027 142.031C108.578 141.719 108.993 141.315 109.271 140.821C109.555 140.327 109.697 139.807 109.697 139.261V137.42C109.612 137.523 109.425 137.616 109.135 137.702C108.851 137.781 108.521 137.852 108.146 137.915C107.777 137.972 107.416 138.023 107.064 138.068C106.717 138.108 106.436 138.142 106.22 138.17C105.697 138.239 105.209 138.349 104.754 138.503C104.305 138.651 103.942 138.875 103.663 139.176C103.391 139.472 103.254 139.875 103.254 140.386C103.254 141.085 103.513 141.614 104.03 141.972C104.553 142.324 105.214 142.5 106.016 142.5ZM117.391 136.125V144H115.38V130.909H117.323V132.955H117.494C117.8 132.29 118.266 131.756 118.891 131.352C119.516 130.943 120.323 130.739 121.312 130.739C122.198 130.739 122.974 130.92 123.638 131.284C124.303 131.642 124.82 132.188 125.19 132.92C125.559 133.648 125.744 134.568 125.744 135.682V144H123.732V135.818C123.732 134.79 123.465 133.989 122.931 133.415C122.397 132.835 121.664 132.545 120.732 132.545C120.09 132.545 119.516 132.685 119.011 132.963C118.511 133.241 118.116 133.648 117.826 134.182C117.536 134.716 117.391 135.364 117.391 136.125ZM134.703 149.182C133.732 149.182 132.896 149.057 132.197 148.807C131.499 148.562 130.916 148.239 130.45 147.835C129.99 147.438 129.624 147.011 129.351 146.557L130.953 145.432C131.135 145.67 131.365 145.943 131.643 146.25C131.922 146.562 132.303 146.832 132.786 147.06C133.274 147.293 133.913 147.409 134.703 147.409C135.76 147.409 136.632 147.153 137.32 146.642C138.007 146.131 138.351 145.33 138.351 144.239V141.58H138.18C138.033 141.818 137.822 142.114 137.55 142.466C137.283 142.812 136.896 143.122 136.391 143.395C135.891 143.662 135.214 143.795 134.362 143.795C133.305 143.795 132.357 143.545 131.516 143.045C130.68 142.545 130.018 141.818 129.53 140.864C129.047 139.909 128.805 138.75 128.805 137.386C128.805 136.045 129.041 134.878 129.513 133.884C129.984 132.884 130.641 132.111 131.482 131.565C132.322 131.014 133.294 130.739 134.396 130.739C135.249 130.739 135.925 130.881 136.425 131.165C136.93 131.443 137.317 131.761 137.584 132.119C137.857 132.472 138.067 132.761 138.214 132.989H138.419V130.909H140.362V144.375C140.362 145.5 140.107 146.415 139.595 147.119C139.089 147.83 138.408 148.349 137.55 148.679C136.697 149.014 135.749 149.182 134.703 149.182ZM134.635 141.989C135.442 141.989 136.124 141.804 136.68 141.435C137.237 141.065 137.661 140.534 137.95 139.841C138.24 139.148 138.385 138.318 138.385 137.352C138.385 136.409 138.243 135.577 137.959 134.855C137.675 134.134 137.254 133.568 136.697 133.159C136.141 132.75 135.453 132.545 134.635 132.545C133.783 132.545 133.072 132.761 132.504 133.193C131.942 133.625 131.518 134.205 131.234 134.932C130.956 135.659 130.817 136.466 130.817 137.352C130.817 138.261 130.959 139.065 131.243 139.764C131.533 140.457 131.959 141.003 132.521 141.401C133.089 141.793 133.794 141.989 134.635 141.989ZM147.896 144.307C147.067 144.307 146.314 144.151 145.638 143.838C144.962 143.52 144.425 143.062 144.027 142.466C143.629 141.864 143.43 141.136 143.43 140.284C143.43 139.534 143.578 138.926 143.874 138.46C144.169 137.989 144.564 137.619 145.058 137.352C145.553 137.085 146.098 136.886 146.695 136.756C147.297 136.619 147.902 136.511 148.51 136.432C149.305 136.33 149.95 136.253 150.445 136.202C150.945 136.145 151.308 136.051 151.536 135.92C151.768 135.79 151.885 135.562 151.885 135.239V135.17C151.885 134.33 151.655 133.676 151.195 133.21C150.74 132.744 150.05 132.511 149.124 132.511C148.163 132.511 147.411 132.722 146.865 133.142C146.32 133.562 145.936 134.011 145.714 134.489L143.805 133.807C144.146 133.011 144.601 132.392 145.169 131.949C145.743 131.5 146.368 131.187 147.044 131.011C147.726 130.83 148.396 130.739 149.055 130.739C149.476 130.739 149.959 130.79 150.504 130.892C151.055 130.989 151.587 131.19 152.098 131.497C152.615 131.804 153.044 132.267 153.385 132.886C153.726 133.506 153.896 134.335 153.896 135.375V144H151.885V142.227H151.783C151.646 142.511 151.419 142.815 151.101 143.139C150.783 143.463 150.359 143.739 149.831 143.966C149.303 144.193 148.658 144.307 147.896 144.307ZM148.203 142.5C148.999 142.5 149.669 142.344 150.214 142.031C150.766 141.719 151.18 141.315 151.459 140.821C151.743 140.327 151.885 139.807 151.885 139.261V137.42C151.8 137.523 151.612 137.616 151.322 137.702C151.038 137.781 150.709 137.852 150.334 137.915C149.964 137.972 149.604 138.023 149.251 138.068C148.905 138.108 148.624 138.142 148.408 138.17C147.885 138.239 147.396 138.349 146.942 138.503C146.493 138.651 146.129 138.875 145.851 139.176C145.578 139.472 145.442 139.875 145.442 140.386C145.442 141.085 145.7 141.614 146.217 141.972C146.74 142.324 147.402 142.5 148.203 142.5Z"/>
</mask>
<path d="M16.1136 144V126.545H18.2273V135.205H18.4318L26.2727 126.545H29.0341L21.7045 134.42L29.0341 144H26.4773L20.4091 135.886L18.2273 138.341V144H16.1136ZM32.3175 144V130.909H34.3288V144H32.3175ZM33.3402 128.727C32.9482 128.727 32.6101 128.594 32.326 128.327C32.0476 128.06 31.9084 127.739 31.9084 127.364C31.9084 126.989 32.0476 126.668 32.326 126.401C32.6101 126.134 32.9482 126 33.3402 126C33.7322 126 34.0675 126.134 34.3459 126.401C34.63 126.668 34.772 126.989 34.772 127.364C34.772 127.739 34.63 128.06 34.3459 128.327C34.0675 128.594 33.7322 128.727 33.3402 128.727ZM38.0128 144V130.909H39.956V132.955H40.1264C40.3991 132.256 40.8395 131.713 41.4474 131.327C42.0554 130.935 42.7855 130.739 43.6378 130.739C44.5014 130.739 45.2202 130.935 45.794 131.327C46.3736 131.713 46.8253 132.256 47.1491 132.955H47.2855C47.6207 132.278 48.1236 131.741 48.794 131.344C49.4645 130.94 50.2685 130.739 51.206 130.739C52.3764 130.739 53.3338 131.105 54.0781 131.838C54.8224 132.565 55.1946 133.699 55.1946 135.239V144H53.1832V135.239C53.1832 134.273 52.919 133.582 52.3906 133.168C51.8622 132.753 51.2401 132.545 50.5241 132.545C49.6037 132.545 48.8906 132.824 48.3849 133.381C47.8793 133.932 47.6264 134.631 47.6264 135.477V144H45.581V135.034C45.581 134.29 45.3395 133.69 44.8565 133.236C44.3736 132.776 43.7514 132.545 42.9901 132.545C42.4673 132.545 41.9787 132.685 41.5241 132.963C41.0753 133.241 40.7116 133.628 40.4332 134.122C40.1605 134.611 40.0241 135.176 40.0241 135.818V144H38.0128ZM64.1903 144.273C63.0085 144.273 61.9716 143.991 61.0795 143.429C60.1932 142.866 59.5 142.08 59 141.068C58.5057 140.057 58.2585 138.875 58.2585 137.523C58.2585 136.159 58.5057 134.969 59 133.952C59.5 132.935 60.1932 132.145 61.0795 131.582C61.9716 131.02 63.0085 130.739 64.1903 130.739C65.3722 130.739 66.4063 131.02 67.2926 131.582C68.1847 132.145 68.8778 132.935 69.3722 133.952C69.8722 134.969 70.1222 136.159 70.1222 137.523C70.1222 138.875 69.8722 140.057 69.3722 141.068C68.8778 142.08 68.1847 142.866 67.2926 143.429C66.4063 143.991 65.3722 144.273 64.1903 144.273ZM64.1903 142.466C65.0881 142.466 65.8267 142.236 66.4062 141.776C66.9858 141.315 67.4148 140.71 67.6932 139.96C67.9716 139.21 68.1108 138.398 68.1108 137.523C68.1108 136.648 67.9716 135.832 67.6932 135.077C67.4148 134.321 66.9858 133.71 66.4062 133.244C65.8267 132.778 65.0881 132.545 64.1903 132.545C63.2926 132.545 62.554 132.778 61.9744 133.244C61.3949 133.71 60.9659 134.321 60.6875 135.077C60.4091 135.832 60.2699 136.648 60.2699 137.523C60.2699 138.398 60.4091 139.21 60.6875 139.96C60.9659 140.71 61.3949 141.315 61.9744 141.776C62.554 142.236 63.2926 142.466 64.1903 142.466ZM75.2038 136.125V144H73.1925V130.909H75.1357V132.955H75.3061C75.6129 132.29 76.0788 131.756 76.7038 131.352C77.3288 130.943 78.1357 130.739 79.1243 130.739C80.0107 130.739 80.7862 130.92 81.451 131.284C82.1158 131.642 82.6328 132.188 83.0021 132.92C83.3714 133.648 83.5561 134.568 83.5561 135.682V144H81.5447V135.818C81.5447 134.79 81.2777 133.989 80.7436 133.415C80.2095 132.835 79.4766 132.545 78.5447 132.545C77.9027 132.545 77.3288 132.685 76.8232 132.963C76.3232 133.241 75.9283 133.648 75.6385 134.182C75.3487 134.716 75.2038 135.364 75.2038 136.125ZM92.5156 149.182C91.544 149.182 90.7088 149.057 90.0099 148.807C89.3111 148.562 88.7287 148.239 88.2628 147.835C87.8026 147.438 87.4361 147.011 87.1634 146.557L88.7656 145.432C88.9474 145.67 89.1776 145.943 89.456 146.25C89.7344 146.562 90.1151 146.832 90.598 147.06C91.0866 147.293 91.7259 147.409 92.5156 147.409C93.5724 147.409 94.4446 147.153 95.1321 146.642C95.8196 146.131 96.1634 145.33 96.1634 144.239V141.58H95.9929C95.8452 141.818 95.6349 142.114 95.3622 142.466C95.0952 142.812 94.7088 143.122 94.2031 143.395C93.7031 143.662 93.027 143.795 92.1747 143.795C91.1179 143.795 90.169 143.545 89.3281 143.045C88.4929 142.545 87.831 141.818 87.3423 140.864C86.8594 139.909 86.6179 138.75 86.6179 137.386C86.6179 136.045 86.8537 134.878 87.3253 133.884C87.7969 132.884 88.4531 132.111 89.294 131.565C90.1349 131.014 91.1065 130.739 92.2088 130.739C93.0611 130.739 93.7372 130.881 94.2372 131.165C94.7429 131.443 95.1293 131.761 95.3963 132.119C95.669 132.472 95.8793 132.761 96.027 132.989H96.2315V130.909H98.1747V144.375C98.1747 145.5 97.919 146.415 97.4077 147.119C96.902 147.83 96.2202 148.349 95.3622 148.679C94.5099 149.014 93.5611 149.182 92.5156 149.182ZM92.4474 141.989C93.2543 141.989 93.9361 141.804 94.4929 141.435C95.0497 141.065 95.473 140.534 95.7628 139.841C96.0526 139.148 96.1974 138.318 96.1974 137.352C96.1974 136.409 96.0554 135.577 95.7713 134.855C95.4872 134.134 95.0668 133.568 94.5099 133.159C93.9531 132.75 93.2656 132.545 92.4474 132.545C91.5952 132.545 90.8849 132.761 90.3168 133.193C89.7543 133.625 89.331 134.205 89.0469 134.932C88.7685 135.659 88.6293 136.466 88.6293 137.352C88.6293 138.261 88.7713 139.065 89.0554 139.764C89.3452 140.457 89.7713 141.003 90.3338 141.401C90.902 141.793 91.6065 141.989 92.4474 141.989ZM105.709 144.307C104.879 144.307 104.126 144.151 103.45 143.838C102.774 143.52 102.237 143.062 101.839 142.466C101.442 141.864 101.243 141.136 101.243 140.284C101.243 139.534 101.391 138.926 101.686 138.46C101.982 137.989 102.376 137.619 102.871 137.352C103.365 137.085 103.911 136.886 104.507 136.756C105.109 136.619 105.714 136.511 106.322 136.432C107.118 136.33 107.763 136.253 108.257 136.202C108.757 136.145 109.121 136.051 109.348 135.92C109.581 135.79 109.697 135.562 109.697 135.239V135.17C109.697 134.33 109.467 133.676 109.007 133.21C108.553 132.744 107.862 132.511 106.936 132.511C105.976 132.511 105.223 132.722 104.678 133.142C104.132 133.562 103.749 134.011 103.527 134.489L101.618 133.807C101.959 133.011 102.413 132.392 102.982 131.949C103.555 131.5 104.18 131.187 104.857 131.011C105.538 130.83 106.209 130.739 106.868 130.739C107.288 130.739 107.771 130.79 108.317 130.892C108.868 130.989 109.399 131.19 109.911 131.497C110.428 131.804 110.857 132.267 111.197 132.886C111.538 133.506 111.709 134.335 111.709 135.375V144H109.697V142.227H109.595C109.459 142.511 109.232 142.815 108.913 143.139C108.595 143.463 108.172 143.739 107.643 143.966C107.115 144.193 106.47 144.307 105.709 144.307ZM106.016 142.5C106.811 142.5 107.482 142.344 108.027 142.031C108.578 141.719 108.993 141.315 109.271 140.821C109.555 140.327 109.697 139.807 109.697 139.261V137.42C109.612 137.523 109.425 137.616 109.135 137.702C108.851 137.781 108.521 137.852 108.146 137.915C107.777 137.972 107.416 138.023 107.064 138.068C106.717 138.108 106.436 138.142 106.22 138.17C105.697 138.239 105.209 138.349 104.754 138.503C104.305 138.651 103.942 138.875 103.663 139.176C103.391 139.472 103.254 139.875 103.254 140.386C103.254 141.085 103.513 141.614 104.03 141.972C104.553 142.324 105.214 142.5 106.016 142.5ZM117.391 136.125V144H115.38V130.909H117.323V132.955H117.494C117.8 132.29 118.266 131.756 118.891 131.352C119.516 130.943 120.323 130.739 121.312 130.739C122.198 130.739 122.974 130.92 123.638 131.284C124.303 131.642 124.82 132.188 125.19 132.92C125.559 133.648 125.744 134.568 125.744 135.682V144H123.732V135.818C123.732 134.79 123.465 133.989 122.931 133.415C122.397 132.835 121.664 132.545 120.732 132.545C120.09 132.545 119.516 132.685 119.011 132.963C118.511 133.241 118.116 133.648 117.826 134.182C117.536 134.716 117.391 135.364 117.391 136.125ZM134.703 149.182C133.732 149.182 132.896 149.057 132.197 148.807C131.499 148.562 130.916 148.239 130.45 147.835C129.99 147.438 129.624 147.011 129.351 146.557L130.953 145.432C131.135 145.67 131.365 145.943 131.643 146.25C131.922 146.562 132.303 146.832 132.786 147.06C133.274 147.293 133.913 147.409 134.703 147.409C135.76 147.409 136.632 147.153 137.32 146.642C138.007 146.131 138.351 145.33 138.351 144.239V141.58H138.18C138.033 141.818 137.822 142.114 137.55 142.466C137.283 142.812 136.896 143.122 136.391 143.395C135.891 143.662 135.214 143.795 134.362 143.795C133.305 143.795 132.357 143.545 131.516 143.045C130.68 142.545 130.018 141.818 129.53 140.864C129.047 139.909 128.805 138.75 128.805 137.386C128.805 136.045 129.041 134.878 129.513 133.884C129.984 132.884 130.641 132.111 131.482 131.565C132.322 131.014 133.294 130.739 134.396 130.739C135.249 130.739 135.925 130.881 136.425 131.165C136.93 131.443 137.317 131.761 137.584 132.119C137.857 132.472 138.067 132.761 138.214 132.989H138.419V130.909H140.362V144.375C140.362 145.5 140.107 146.415 139.595 147.119C139.089 147.83 138.408 148.349 137.55 148.679C136.697 149.014 135.749 149.182 134.703 149.182ZM134.635 141.989C135.442 141.989 136.124 141.804 136.68 141.435C137.237 141.065 137.661 140.534 137.95 139.841C138.24 139.148 138.385 138.318 138.385 137.352C138.385 136.409 138.243 135.577 137.959 134.855C137.675 134.134 137.254 133.568 136.697 133.159C136.141 132.75 135.453 132.545 134.635 132.545C133.783 132.545 133.072 132.761 132.504 133.193C131.942 133.625 131.518 134.205 131.234 134.932C130.956 135.659 130.817 136.466 130.817 137.352C130.817 138.261 130.959 139.065 131.243 139.764C131.533 140.457 131.959 141.003 132.521 141.401C133.089 141.793 133.794 141.989 134.635 141.989ZM147.896 144.307C147.067 144.307 146.314 144.151 145.638 143.838C144.962 143.52 144.425 143.062 144.027 142.466C143.629 141.864 143.43 141.136 143.43 140.284C143.43 139.534 143.578 138.926 143.874 138.46C144.169 137.989 144.564 137.619 145.058 137.352C145.553 137.085 146.098 136.886 146.695 136.756C147.297 136.619 147.902 136.511 148.51 136.432C149.305 136.33 149.95 136.253 150.445 136.202C150.945 136.145 151.308 136.051 151.536 135.92C151.768 135.79 151.885 135.562 151.885 135.239V135.17C151.885 134.33 151.655 133.676 151.195 133.21C150.74 132.744 150.05 132.511 149.124 132.511C148.163 132.511 147.411 132.722 146.865 133.142C146.32 133.562 145.936 134.011 145.714 134.489L143.805 133.807C144.146 133.011 144.601 132.392 145.169 131.949C145.743 131.5 146.368 131.187 147.044 131.011C147.726 130.83 148.396 130.739 149.055 130.739C149.476 130.739 149.959 130.79 150.504 130.892C151.055 130.989 151.587 131.19 152.098 131.497C152.615 131.804 153.044 132.267 153.385 132.886C153.726 133.506 153.896 134.335 153.896 135.375V144H151.885V142.227H151.783C151.646 142.511 151.419 142.815 151.101 143.139C150.783 143.463 150.359 143.739 149.831 143.966C149.303 144.193 148.658 144.307 147.896 144.307ZM148.203 142.5C148.999 142.5 149.669 142.344 150.214 142.031C150.766 141.719 151.18 141.315 151.459 140.821C151.743 140.327 151.885 139.807 151.885 139.261V137.42C151.8 137.523 151.612 137.616 151.322 137.702C151.038 137.781 150.709 137.852 150.334 137.915C149.964 137.972 149.604 138.023 149.251 138.068C148.905 138.108 148.624 138.142 148.408 138.17C147.885 138.239 147.396 138.349 146.942 138.503C146.493 138.651 146.129 138.875 145.851 139.176C145.578 139.472 145.442 139.875 145.442 140.386C145.442 141.085 145.7 141.614 146.217 141.972C146.74 142.324 147.402 142.5 148.203 142.5Z" fill="#BDFED5"/>
<path d="M16.1136 144H15.9136V144.2H16.1136V144ZM16.1136 126.545V126.345H15.9136V126.545H16.1136ZM18.2273 126.545H18.4273V126.345H18.2273V126.545ZM18.2273 135.205H18.0273V135.405H18.2273V135.205ZM18.4318 135.205V135.405H18.5205L18.5801 135.339L18.4318 135.205ZM26.2727 126.545V126.345H26.184L26.1245 126.411L26.2727 126.545ZM29.0341 126.545L29.1805 126.682L29.4935 126.345H29.0341V126.545ZM21.7045 134.42L21.5581 134.284L21.4431 134.408L21.5457 134.542L21.7045 134.42ZM29.0341 144V144.2H29.4389L29.1929 143.878L29.0341 144ZM26.4773 144L26.3171 144.12L26.3771 144.2H26.4773V144ZM20.4091 135.886L20.5693 135.767L20.4225 135.57L20.2596 135.753L20.4091 135.886ZM18.2273 138.341L18.0778 138.208L18.0273 138.265V138.341H18.2273ZM18.2273 144V144.2H18.4273V144H18.2273ZM16.3136 144V126.545H15.9136V144H16.3136ZM16.1136 126.745H18.2273V126.345H16.1136V126.745ZM18.0273 126.545V135.205H18.4273V126.545H18.0273ZM18.2273 135.405H18.4318V135.005H18.2273V135.405ZM18.5801 135.339L26.421 126.68L26.1245 126.411L18.2836 135.07L18.5801 135.339ZM26.2727 126.745H29.0341V126.345H26.2727V126.745ZM28.8877 126.409L21.5581 134.284L21.8509 134.557L29.1805 126.682L28.8877 126.409ZM21.5457 134.542L28.8753 144.122L29.1929 143.878L21.8634 134.299L21.5457 134.542ZM29.0341 143.8H26.4773V144.2H29.0341V143.8ZM26.6374 143.88L20.5693 135.767L20.2489 136.006L26.3171 144.12L26.6374 143.88ZM20.2596 135.753L18.0778 138.208L18.3768 138.474L20.5586 136.019L20.2596 135.753ZM18.0273 138.341V144H18.4273V138.341H18.0273ZM18.2273 143.8H16.1136V144.2H18.2273V143.8ZM32.3175 144H32.1175V144.2H32.3175V144ZM32.3175 130.909V130.709H32.1175V130.909H32.3175ZM34.3288 130.909H34.5288V130.709H34.3288V130.909ZM34.3288 144V144.2H34.5288V144H34.3288ZM32.326 128.327L32.1875 128.471L32.189 128.472L32.326 128.327ZM32.326 126.401L32.189 126.255L32.1875 126.256L32.326 126.401ZM34.3459 126.401L34.2074 126.545L34.2089 126.546L34.3459 126.401ZM34.3459 128.327L34.2089 128.181L34.2074 128.182L34.3459 128.327ZM32.5175 144V130.909H32.1175V144H32.5175ZM32.3175 131.109H34.3288V130.709H32.3175V131.109ZM34.1288 130.909V144H34.5288V130.909H34.1288ZM34.3288 143.8H32.3175V144.2H34.3288V143.8ZM33.3402 128.527C32.9987 128.527 32.7098 128.413 32.463 128.181L32.189 128.472C32.5104 128.775 32.8976 128.927 33.3402 128.927V128.527ZM32.4644 128.182C32.2241 127.952 32.1084 127.682 32.1084 127.364H31.7084C31.7084 127.795 31.8711 128.167 32.1875 128.471L32.4644 128.182ZM32.1084 127.364C32.1084 127.045 32.2241 126.775 32.4644 126.545L32.1875 126.256C31.8711 126.56 31.7084 126.932 31.7084 127.364H32.1084ZM32.463 126.546C32.7098 126.314 32.9987 126.2 33.3402 126.2V125.8C32.8976 125.8 32.5104 125.953 32.189 126.255L32.463 126.546ZM33.3402 126.2C33.6816 126.2 33.9669 126.314 34.2074 126.545L34.4843 126.256C34.168 125.953 33.7829 125.8 33.3402 125.8V126.2ZM34.2089 126.546C34.4546 126.777 34.572 127.046 34.572 127.364H34.972C34.972 126.931 34.8054 126.558 34.4829 126.255L34.2089 126.546ZM34.572 127.364C34.572 127.681 34.4546 127.95 34.2089 128.181L34.4829 128.472C34.8054 128.169 34.972 127.796 34.972 127.364H34.572ZM34.2074 128.182C33.9669 128.413 33.6816 128.527 33.3402 128.527V128.927C33.7829 128.927 34.168 128.774 34.4843 128.471L34.2074 128.182ZM38.0128 144H37.8128V144.2H38.0128V144ZM38.0128 130.909V130.709H37.8128V130.909H38.0128ZM39.956 130.909H40.156V130.709H39.956V130.909ZM39.956 132.955H39.756V133.155H39.956V132.955ZM40.1264 132.955V133.155H40.2631L40.3127 133.027L40.1264 132.955ZM41.4474 131.327L41.5547 131.496L41.5558 131.495L41.4474 131.327ZM45.794 131.327L45.6812 131.492L45.6831 131.493L45.794 131.327ZM47.1491 132.955L46.9677 133.039L47.0214 133.155H47.1491V132.955ZM47.2855 132.955V133.155H47.4096L47.4647 133.043L47.2855 132.955ZM48.794 131.344L48.8961 131.516L48.8971 131.515L48.794 131.344ZM54.0781 131.838L53.9378 131.981L53.9384 131.981L54.0781 131.838ZM55.1946 144V144.2H55.3946V144H55.1946ZM53.1832 144H52.9832V144.2H53.1832V144ZM52.3906 133.168L52.2671 133.325L52.2671 133.325L52.3906 133.168ZM48.3849 133.381L48.5323 133.516L48.533 133.515L48.3849 133.381ZM47.6264 144V144.2H47.8264V144H47.6264ZM45.581 144H45.381V144.2H45.581V144ZM44.8565 133.236L44.7186 133.381L44.7195 133.381L44.8565 133.236ZM41.5241 132.963L41.4197 132.793L41.4187 132.793L41.5241 132.963ZM40.4332 134.122L40.259 134.024L40.2586 134.025L40.4332 134.122ZM40.0241 144V144.2H40.2241V144H40.0241ZM38.2128 144V130.909H37.8128V144H38.2128ZM38.0128 131.109H39.956V130.709H38.0128V131.109ZM39.756 130.909V132.955H40.156V130.909H39.756ZM39.956 133.155H40.1264V132.755H39.956V133.155ZM40.3127 133.027C40.5707 132.366 40.9842 131.858 41.5547 131.496L41.3402 131.158C40.6948 131.568 40.2276 132.145 39.9401 132.882L40.3127 133.027ZM41.5558 131.495C42.1261 131.127 42.817 130.939 43.6378 130.939V130.539C42.754 130.539 41.9847 130.742 41.3391 131.159L41.5558 131.495ZM43.6378 130.939C44.471 130.939 45.1479 131.127 45.6812 131.492L45.9069 131.162C45.2925 130.742 44.5318 130.539 43.6378 130.539V130.939ZM45.6831 131.493C46.2288 131.857 46.6576 132.37 46.9677 133.039L47.3306 132.87C46.993 132.142 46.5183 131.569 45.905 131.16L45.6831 131.493ZM47.1491 133.155H47.2855V132.755H47.1491V133.155ZM47.4647 133.043C47.7822 132.403 48.2577 131.894 48.8961 131.516L48.692 131.172C47.9895 131.588 47.4593 132.154 47.1063 132.866L47.4647 133.043ZM48.8971 131.515C49.5308 131.134 50.2976 130.939 51.206 130.939V130.539C50.2394 130.539 49.3982 130.747 48.6909 131.172L48.8971 131.515ZM51.206 130.939C52.3308 130.939 53.2355 131.289 53.9378 131.981L54.2185 131.696C53.4321 130.921 52.422 130.539 51.206 130.539V130.939ZM53.9384 131.981C54.629 132.656 54.9946 133.727 54.9946 135.239H55.3946C55.3946 133.671 55.0159 132.475 54.2179 131.695L53.9384 131.981ZM54.9946 135.239V144H55.3946V135.239H54.9946ZM55.1946 143.8H53.1832V144.2H55.1946V143.8ZM53.3832 144V135.239H52.9832V144H53.3832ZM53.3832 135.239C53.3832 134.239 53.1093 133.477 52.5141 133.01L52.2671 133.325C52.7288 133.687 52.9832 134.306 52.9832 135.239H53.3832ZM52.5141 133.01C51.9481 132.566 51.2817 132.345 50.5241 132.345V132.745C51.1984 132.745 51.7764 132.94 52.2671 133.325L52.5141 133.01ZM50.5241 132.345C49.5609 132.345 48.7888 132.639 48.2369 133.246L48.533 133.515C48.9925 133.009 49.6465 132.745 50.5241 132.745V132.345ZM48.2376 133.245C47.6935 133.838 47.4264 134.588 47.4264 135.477H47.8264C47.8264 134.674 48.065 134.025 48.5323 133.516L48.2376 133.245ZM47.4264 135.477V144H47.8264V135.477H47.4264ZM47.6264 143.8H45.581V144.2H47.6264V143.8ZM45.781 144V135.034H45.381V144H45.781ZM45.781 135.034C45.781 134.242 45.5218 133.587 44.9936 133.09L44.7195 133.381C45.1571 133.793 45.381 134.337 45.381 135.034H45.781ZM44.9945 133.091C44.4691 132.59 43.795 132.345 42.9901 132.345V132.745C43.7079 132.745 44.2781 132.961 44.7186 133.381L44.9945 133.091ZM42.9901 132.345C42.4297 132.345 41.905 132.495 41.4197 132.793L41.6286 133.134C42.0524 132.874 42.505 132.745 42.9901 132.745V132.345ZM41.4187 132.793C40.9391 133.091 40.5527 133.503 40.259 134.024L40.6075 134.22C40.8706 133.753 41.2114 133.392 41.6296 133.133L41.4187 132.793ZM40.2586 134.025C39.9669 134.547 39.8241 135.147 39.8241 135.818H40.2241C40.2241 135.205 40.3541 134.674 40.6079 134.22L40.2586 134.025ZM39.8241 135.818V144H40.2241V135.818H39.8241ZM40.0241 143.8H38.0128V144.2H40.0241V143.8ZM61.0795 143.429L60.9724 143.598L60.9729 143.598L61.0795 143.429ZM59 141.068L58.8203 141.156L58.8207 141.157L59 141.068ZM59 133.952L58.8205 133.863L58.8201 133.864L59 133.952ZM61.0795 131.582L60.9729 131.413L60.9724 131.414L61.0795 131.582ZM67.2926 131.582L67.1854 131.751L67.1859 131.752L67.2926 131.582ZM69.3722 133.952L69.1923 134.039L69.1927 134.04L69.3722 133.952ZM69.3722 141.068L69.1929 140.98L69.1925 140.98L69.3722 141.068ZM67.2926 143.429L67.1859 143.26L67.1854 143.26L67.2926 143.429ZM66.4062 141.776L66.2819 141.619L66.2819 141.619L66.4062 141.776ZM67.6932 139.96L67.8807 140.03L67.8807 140.03L67.6932 139.96ZM67.6932 135.077L67.8809 135.008L67.8809 135.008L67.6932 135.077ZM66.4062 133.244L66.5316 133.088L66.5316 133.088L66.4062 133.244ZM61.9744 133.244L61.8491 133.088L61.8491 133.088L61.9744 133.244ZM60.6875 135.077L60.4998 135.008L60.4998 135.008L60.6875 135.077ZM60.6875 139.96L60.5 140.03L60.5 140.03L60.6875 139.96ZM61.9744 141.776L62.0988 141.619L62.0988 141.619L61.9744 141.776ZM64.1903 144.073C63.0416 144.073 62.0426 143.8 61.1862 143.26L60.9729 143.598C61.9006 144.183 62.9755 144.473 64.1903 144.473V144.073ZM61.1867 143.26C60.3336 142.719 59.6643 141.961 59.1793 140.98L58.8207 141.157C59.3357 142.198 60.0528 143.014 60.9724 143.598L61.1867 143.26ZM59.1797 140.98C58.7012 140.001 58.4585 138.851 58.4585 137.523H58.0585C58.0585 138.899 58.3102 140.112 58.8203 141.156L59.1797 140.98ZM58.4585 137.523C58.4585 136.183 58.7013 135.024 59.1799 134.039L58.8201 133.864C58.3101 134.914 58.0585 136.135 58.0585 137.523H58.4585ZM59.1795 134.04C59.6646 133.053 60.3339 132.292 61.1867 131.751L60.9724 131.414C60.0525 131.997 59.3354 132.816 58.8205 133.863L59.1795 134.04ZM61.1862 131.752C62.0426 131.212 63.0416 130.939 64.1903 130.939V130.539C62.9755 130.539 61.9006 130.828 60.9729 131.413L61.1862 131.752ZM64.1903 130.939C65.3391 130.939 66.335 131.212 67.1854 131.751L67.3998 131.414C66.4775 130.828 65.4052 130.539 64.1903 130.539V130.939ZM67.1859 131.752C68.0441 132.293 68.713 133.053 69.1923 134.039L69.552 133.864C69.0426 132.816 68.3252 131.997 67.3993 131.413L67.1859 131.752ZM69.1927 134.04C69.6767 135.025 69.9222 136.184 69.9222 137.523H70.3222C70.3222 136.135 70.0676 134.913 69.5516 133.863L69.1927 134.04ZM69.9222 137.523C69.9222 138.85 69.6768 140.001 69.1929 140.98L69.5514 141.157C70.0675 140.113 70.3222 138.9 70.3222 137.523H69.9222ZM69.1925 140.98C68.7133 141.961 68.0444 142.718 67.1859 143.26L67.3993 143.598C68.3249 143.014 69.0424 142.198 69.5518 141.156L69.1925 140.98ZM67.1854 143.26C66.335 143.8 65.3391 144.073 64.1903 144.073V144.473C65.4052 144.473 66.4775 144.183 67.3998 143.598L67.1854 143.26ZM64.1903 142.666C65.1233 142.666 65.9086 142.426 66.5306 141.932L66.2819 141.619C65.7448 142.045 65.0528 142.266 64.1903 142.266V142.666ZM66.5306 141.932C67.1411 141.447 67.5906 140.811 67.8807 140.03L67.5057 139.891C67.2389 140.609 66.8305 141.183 66.2819 141.619L66.5306 141.932ZM67.8807 140.03C68.1681 139.256 68.3108 138.419 68.3108 137.523H67.9108C67.9108 138.376 67.7751 139.165 67.5057 139.891L67.8807 140.03ZM68.3108 137.523C68.3108 136.626 68.1681 135.787 67.8809 135.008L67.5055 135.146C67.7751 135.878 67.9108 136.669 67.9108 137.523H68.3108ZM67.8809 135.008C67.591 134.221 67.1417 133.579 66.5316 133.088L66.2809 133.4C66.8299 133.842 67.2386 134.421 67.5055 135.146L67.8809 135.008ZM66.5316 133.088C65.9096 132.588 65.1239 132.345 64.1903 132.345V132.745C65.0523 132.745 65.7439 132.968 66.2809 133.4L66.5316 133.088ZM64.1903 132.345C63.2568 132.345 62.4711 132.588 61.8491 133.088L62.0997 133.4C62.6368 132.968 63.3284 132.745 64.1903 132.745V132.345ZM61.8491 133.088C61.239 133.579 60.7897 134.221 60.4998 135.008L60.8752 135.146C61.1421 134.421 61.5508 133.842 62.0997 133.4L61.8491 133.088ZM60.4998 135.008C60.2126 135.787 60.0699 136.626 60.0699 137.523H60.4699C60.4699 136.669 60.6056 135.878 60.8752 135.146L60.4998 135.008ZM60.0699 137.523C60.0699 138.419 60.2126 139.256 60.5 140.03L60.875 139.891C60.6056 139.165 60.4699 138.376 60.4699 137.523H60.0699ZM60.5 140.03C60.79 140.811 61.2396 141.447 61.8501 141.932L62.0988 141.619C61.5502 141.183 61.1418 140.609 60.875 139.891L60.5 140.03ZM61.8501 141.932C62.472 142.426 63.2574 142.666 64.1903 142.666V142.266C63.3278 142.266 62.6359 142.045 62.0988 141.619L61.8501 141.932ZM75.2038 144V144.2H75.4038V144H75.2038ZM73.1925 144H72.9925V144.2H73.1925V144ZM73.1925 130.909V130.709H72.9925V130.909H73.1925ZM75.1357 130.909H75.3357V130.709H75.1357V130.909ZM75.1357 132.955H74.9357V133.155H75.1357V132.955ZM75.3061 132.955V133.155H75.4341L75.4877 133.038L75.3061 132.955ZM76.7038 131.352L76.8123 131.52L76.8134 131.52L76.7038 131.352ZM81.451 131.284L81.355 131.46L81.3562 131.46L81.451 131.284ZM83.0021 132.92L82.8235 133.01L82.8238 133.011L83.0021 132.92ZM83.5561 144V144.2H83.7561V144H83.5561ZM81.5447 144H81.3447V144.2H81.5447V144ZM80.7436 133.415L80.5965 133.55L80.5972 133.551L80.7436 133.415ZM76.8232 132.963L76.7267 132.788L76.7259 132.788L76.8232 132.963ZM75.6385 134.182L75.4627 134.086L75.4627 134.086L75.6385 134.182ZM75.0038 136.125V144H75.4038V136.125H75.0038ZM75.2038 143.8H73.1925V144.2H75.2038V143.8ZM73.3925 144V130.909H72.9925V144H73.3925ZM73.1925 131.109H75.1357V130.709H73.1925V131.109ZM74.9357 130.909V132.955H75.3357V130.909H74.9357ZM75.1357 133.155H75.3061V132.755H75.1357V133.155ZM75.4877 133.038C75.7784 132.409 76.2186 131.903 76.8123 131.52L76.5954 131.184C75.939 131.608 75.4475 132.171 75.1245 132.871L75.4877 133.038ZM76.8134 131.52C77.3968 131.138 78.1622 130.939 79.1243 130.939V130.539C78.1091 130.539 77.2608 130.749 76.5943 131.185L76.8134 131.52ZM79.1243 130.939C79.9828 130.939 80.7243 131.115 81.355 131.46L81.547 131.109C80.8481 130.726 80.0385 130.539 79.1243 130.539V130.939ZM81.3562 131.46C81.9817 131.797 82.471 132.311 82.8235 133.01L83.1807 132.83C82.7947 132.064 82.2498 131.487 81.5458 131.108L81.3562 131.46ZM82.8238 133.011C83.1746 133.702 83.3561 134.589 83.3561 135.682H83.7561C83.7561 134.548 83.5683 133.594 83.1805 132.83L82.8238 133.011ZM83.3561 135.682V144H83.7561V135.682H83.3561ZM83.5561 143.8H81.5447V144.2H83.5561V143.8ZM81.7447 144V135.818H81.3447V144H81.7447ZM81.7447 135.818C81.7447 134.755 81.4682 133.9 80.89 133.279L80.5972 133.551C81.0872 134.078 81.3447 134.824 81.3447 135.818H81.7447ZM80.8907 133.279C80.3118 132.651 79.5213 132.345 78.5447 132.345V132.745C79.4318 132.745 80.1072 133.019 80.5965 133.55L80.8907 133.279ZM78.5447 132.345C77.8728 132.345 77.2651 132.491 76.7267 132.788L76.9196 133.138C77.3925 132.878 77.9326 132.745 78.5447 132.745V132.345ZM76.7259 132.788C76.1906 133.086 75.7694 133.521 75.4627 134.086L75.8143 134.277C76.0871 133.774 76.4557 133.397 76.9205 133.138L76.7259 132.788ZM75.4627 134.086C75.1535 134.656 75.0038 135.339 75.0038 136.125H75.4038C75.4038 135.389 75.5439 134.776 75.8143 134.277L75.4627 134.086ZM90.0099 148.807L90.0773 148.618L90.0759 148.618L90.0099 148.807ZM88.2628 147.835L88.3937 147.684L88.3936 147.684L88.2628 147.835ZM87.1634 146.557L87.0484 146.393L86.8961 146.5L86.9919 146.66L87.1634 146.557ZM88.7656 145.432L88.9247 145.311L88.8081 145.158L88.6507 145.268L88.7656 145.432ZM89.456 146.25L89.6053 146.117L89.6041 146.116L89.456 146.25ZM90.598 147.06L90.6841 146.879L90.6832 146.879L90.598 147.06ZM95.1321 146.642L95.2515 146.803L95.2515 146.803L95.1321 146.642ZM96.1634 141.58H96.3634V141.38H96.1634V141.58ZM95.9929 141.58V141.38H95.8815L95.8228 141.474L95.9929 141.58ZM95.3622 142.466L95.2041 142.343L95.2038 142.344L95.3622 142.466ZM94.2031 143.395L94.2973 143.571L94.2981 143.571L94.2031 143.395ZM89.3281 143.045L89.2254 143.217L89.2259 143.217L89.3281 143.045ZM87.3423 140.864L87.1639 140.954L87.1643 140.955L87.3423 140.864ZM87.3253 133.884L87.506 133.969L87.5062 133.969L87.3253 133.884ZM89.294 131.565L89.4029 131.733L89.4037 131.733L89.294 131.565ZM94.2372 131.165L94.1384 131.339L94.1408 131.34L94.2372 131.165ZM95.3963 132.119L95.236 132.239L95.2382 132.242L95.3963 132.119ZM96.027 132.989L95.8593 133.098L95.9185 133.189H96.027V132.989ZM96.2315 132.989V133.189H96.4315V132.989H96.2315ZM96.2315 130.909V130.709H96.0315V130.909H96.2315ZM98.1747 130.909H98.3747V130.709H98.1747V130.909ZM97.4077 147.119L97.2458 147.002L97.2447 147.003L97.4077 147.119ZM95.3622 148.679L95.2905 148.492L95.289 148.493L95.3622 148.679ZM94.4929 141.435L94.3824 141.268L94.3824 141.268L94.4929 141.435ZM95.7628 139.841L95.9473 139.918L95.9473 139.918L95.7628 139.841ZM95.7713 134.855L95.9574 134.782L95.9574 134.782L95.7713 134.855ZM94.5099 133.159L94.3915 133.32L94.3915 133.32L94.5099 133.159ZM90.3168 133.193L90.1957 133.034L90.195 133.035L90.3168 133.193ZM89.0469 134.932L88.8606 134.859L88.8601 134.86L89.0469 134.932ZM89.0554 139.764L88.8701 139.84L88.8709 139.841L89.0554 139.764ZM90.3338 141.401L90.2183 141.564L90.2202 141.565L90.3338 141.401ZM92.5156 148.982C91.5603 148.982 90.749 148.859 90.0773 148.619L89.9426 148.995C90.6686 149.255 91.5278 149.382 92.5156 149.382V148.982ZM90.0759 148.618C89.3962 148.38 88.8371 148.068 88.3937 147.684L88.1319 147.986C88.6203 148.409 89.2259 148.745 89.9439 148.996L90.0759 148.618ZM88.3936 147.684C87.9471 147.298 87.5952 146.888 87.3349 146.454L86.9919 146.66C87.277 147.135 87.6581 147.577 88.132 147.987L88.3936 147.684ZM87.2783 146.721L88.8806 145.596L88.6507 145.268L87.0484 146.393L87.2783 146.721ZM88.6065 145.553C88.7928 145.798 89.0269 146.075 89.3079 146.384L89.6041 146.116C89.3282 145.812 89.102 145.543 88.9247 145.311L88.6065 145.553ZM89.3066 146.383C89.6072 146.72 90.012 147.005 90.5129 147.241L90.6832 146.879C90.2182 146.66 89.8616 146.405 89.6053 146.117L89.3066 146.383ZM90.5119 147.24C91.0369 147.49 91.7087 147.609 92.5156 147.609V147.209C91.743 147.209 91.1364 147.095 90.6841 146.879L90.5119 147.24ZM92.5156 147.609C93.6052 147.609 94.5221 147.345 95.2515 146.803L95.0127 146.482C94.3671 146.962 93.5397 147.209 92.5156 147.209V147.609ZM95.2515 146.803C96.0033 146.243 96.3634 145.374 96.3634 144.239H95.9634C95.9634 145.285 95.6359 146.018 95.0127 146.482L95.2515 146.803ZM96.3634 144.239V141.58H95.9634V144.239H96.3634ZM96.1634 141.38H95.9929V141.78H96.1634V141.38ZM95.8228 141.474C95.6803 141.705 95.4747 141.994 95.2041 142.343L95.5204 142.588C95.7952 142.233 96.0101 141.932 96.163 141.685L95.8228 141.474ZM95.2038 142.344C94.9584 142.662 94.5965 142.955 94.1082 143.219L94.2981 143.571C94.8211 143.289 95.232 142.963 95.5206 142.588L95.2038 142.344ZM94.1089 143.218C93.6489 143.464 93.0093 143.595 92.1747 143.595V143.995C93.0446 143.995 93.7574 143.86 94.2973 143.571L94.1089 143.218ZM92.1747 143.595C91.1509 143.595 90.2379 143.354 89.4303 142.874L89.2259 143.217C90.1002 143.737 91.0849 143.995 92.1747 143.995V143.595ZM89.4309 142.874C88.631 142.395 87.9937 141.697 87.5204 140.773L87.1643 140.955C87.6682 141.939 88.3548 142.696 89.2254 143.217L89.4309 142.874ZM87.5208 140.773C87.0553 139.853 86.8179 138.727 86.8179 137.386H86.4179C86.4179 138.773 86.6634 139.965 87.1639 140.954L87.5208 140.773ZM86.8179 137.386C86.8179 136.069 87.0496 134.932 87.506 133.969L87.1446 133.798C86.6578 134.824 86.4179 136.022 86.4179 137.386H86.8179ZM87.5062 133.969C87.9636 132.999 88.5964 132.256 89.4029 131.733L89.1852 131.398C88.3099 131.965 87.6302 132.768 87.1444 133.798L87.5062 133.969ZM89.4037 131.733C90.2089 131.205 91.1416 130.939 92.2088 130.939V130.539C91.0715 130.539 90.061 130.824 89.1844 131.398L89.4037 131.733ZM92.2088 130.939C93.0419 130.939 93.6796 131.078 94.1384 131.339L94.336 130.991C93.7948 130.683 93.0802 130.539 92.2088 130.539V130.939ZM94.1408 131.34C94.6285 131.608 94.9902 131.909 95.236 132.239L95.5566 132C95.2683 131.613 94.8573 131.278 94.3337 130.99L94.1408 131.34ZM95.2382 132.242C95.5094 132.592 95.7159 132.877 95.8593 133.098L96.1947 132.88C96.0427 132.646 95.8287 132.351 95.5545 131.997L95.2382 132.242ZM96.027 133.189H96.2315V132.789H96.027V133.189ZM96.4315 132.989V130.909H96.0315V132.989H96.4315ZM96.2315 131.109H98.1747V130.709H96.2315V131.109ZM97.9747 130.909V144.375H98.3747V130.909H97.9747ZM97.9747 144.375C97.9747 145.47 97.726 146.34 97.2458 147.002L97.5695 147.237C98.1121 146.489 98.3747 145.53 98.3747 144.375H97.9747ZM97.2447 147.003C96.7631 147.68 96.1139 148.176 95.2905 148.492L95.4339 148.866C96.3265 148.523 97.0408 147.979 97.5706 147.235L97.2447 147.003ZM95.289 148.493C94.4631 148.818 93.5395 148.982 92.5156 148.982V149.382C93.5826 149.382 94.5568 149.211 95.4354 148.865L95.289 148.493ZM92.4474 142.189C93.2853 142.189 94.0076 141.997 94.6034 141.601L94.3824 141.268C93.8646 141.611 93.2232 141.789 92.4474 141.789V142.189ZM94.6034 141.601C95.1972 141.207 95.6442 140.643 95.9473 139.918L95.5783 139.764C95.3018 140.425 94.9022 140.923 94.3824 141.268L94.6034 141.601ZM95.9473 139.918C96.2498 139.195 96.3974 138.337 96.3974 137.352H95.9974C95.9974 138.299 95.8554 139.101 95.5783 139.764L95.9473 139.918ZM96.3974 137.352C96.3974 136.389 96.2524 135.531 95.9574 134.782L95.5852 134.928C95.8584 135.622 95.9974 136.429 95.9974 137.352H96.3974ZM95.9574 134.782C95.6612 134.03 95.2192 133.432 94.6284 132.998L94.3915 133.32C94.9143 133.704 95.3132 134.237 95.5852 134.928L95.9574 134.782ZM94.6284 132.998C94.0312 132.559 93.3001 132.345 92.4474 132.345V132.745C93.2311 132.745 93.875 132.941 94.3915 133.32L94.6284 132.998ZM92.4474 132.345C91.5602 132.345 90.8051 132.571 90.1957 133.034L90.4378 133.352C90.9648 132.952 91.6301 132.745 92.4474 132.745V132.345ZM90.195 133.035C89.6007 133.491 89.1566 134.101 88.8606 134.859L89.2332 135.005C89.5054 134.308 89.9079 133.759 90.4385 133.352L90.195 133.035ZM88.8601 134.86C88.5718 135.613 88.4293 136.445 88.4293 137.352H88.8293C88.8293 136.487 88.9651 135.705 89.2337 135.003L88.8601 134.86ZM88.4293 137.352C88.4293 138.282 88.5745 139.112 88.8701 139.84L89.2407 139.689C88.9681 139.018 88.8293 138.241 88.8293 137.352H88.4293ZM88.8709 139.841C89.1738 140.566 89.6224 141.143 90.2183 141.564L90.4493 141.237C89.9202 140.863 89.5166 140.349 89.2399 139.687L88.8709 139.841ZM90.2202 141.565C90.8285 141.985 91.5749 142.189 92.4474 142.189V141.789C91.6381 141.789 90.9755 141.6 90.4474 141.236L90.2202 141.565ZM103.45 143.838L103.365 144.019L103.366 144.02L103.45 143.838ZM101.839 142.466L101.673 142.576L101.673 142.577L101.839 142.466ZM101.686 138.46L101.855 138.567L101.856 138.566L101.686 138.46ZM104.507 136.756L104.55 136.951L104.551 136.951L104.507 136.756ZM106.322 136.432L106.297 136.233L106.296 136.234L106.322 136.432ZM108.257 136.202L108.278 136.401L108.28 136.4L108.257 136.202ZM109.348 135.92L109.25 135.746L109.248 135.747L109.348 135.92ZM109.007 133.21L108.864 133.35L108.865 133.351L109.007 133.21ZM104.678 133.142L104.8 133.3L104.8 133.3L104.678 133.142ZM103.527 134.489L103.46 134.677L103.632 134.738L103.708 134.573L103.527 134.489ZM101.618 133.807L101.434 133.728L101.35 133.924L101.551 133.995L101.618 133.807ZM102.982 131.949L103.105 132.107L103.105 132.106L102.982 131.949ZM104.857 131.011L104.907 131.205L104.908 131.205L104.857 131.011ZM108.317 130.892L108.28 131.089L108.282 131.089L108.317 130.892ZM109.911 131.497L109.808 131.669L109.808 131.669L109.911 131.497ZM111.197 132.886L111.022 132.983L111.022 132.983L111.197 132.886ZM111.709 144V144.2H111.909V144H111.709ZM109.697 144H109.497V144.2H109.697V144ZM109.697 142.227H109.897V142.027H109.697V142.227ZM109.595 142.227V142.027H109.469L109.415 142.141L109.595 142.227ZM108.913 143.139L109.056 143.279L109.056 143.279L108.913 143.139ZM107.643 143.966L107.564 143.782L107.564 143.782L107.643 143.966ZM108.027 142.031L107.928 141.857L107.928 141.858L108.027 142.031ZM109.271 140.821L109.098 140.721L109.097 140.723L109.271 140.821ZM109.697 137.42H109.897V136.868L109.544 137.292L109.697 137.42ZM109.135 137.702L109.189 137.894L109.191 137.894L109.135 137.702ZM108.146 137.915L108.177 138.112L108.179 138.112L108.146 137.915ZM107.064 138.068L107.087 138.267L107.09 138.267L107.064 138.068ZM106.22 138.17L106.246 138.369L106.246 138.369L106.22 138.17ZM104.754 138.503L104.817 138.693L104.818 138.692L104.754 138.503ZM103.663 139.176L103.516 139.04L103.516 139.04L103.663 139.176ZM104.03 141.972L103.916 142.136L103.918 142.137L104.03 141.972ZM105.709 144.107C104.905 144.107 104.181 143.956 103.534 143.657L103.366 144.02C104.072 144.346 104.854 144.507 105.709 144.507V144.107ZM103.535 143.657C102.891 143.354 102.383 142.92 102.006 142.355L101.673 142.577C102.092 143.205 102.657 143.686 103.365 144.019L103.535 143.657ZM102.006 142.356C101.634 141.792 101.443 141.104 101.443 140.284H101.043C101.043 141.168 101.25 141.936 101.673 142.576L102.006 142.356ZM101.443 140.284C101.443 139.559 101.586 138.992 101.855 138.567L101.517 138.353C101.195 138.861 101.043 139.509 101.043 140.284H101.443ZM101.856 138.566C102.132 138.124 102.502 137.779 102.966 137.528L102.776 137.176C102.251 137.46 101.831 137.853 101.517 138.354L101.856 138.566ZM102.966 137.528C103.442 137.271 103.97 137.078 104.55 136.951L104.464 136.56C103.851 136.695 103.288 136.9 102.776 137.176L102.966 137.528ZM104.551 136.951C105.148 136.816 105.747 136.709 106.348 136.63L106.296 136.234C105.682 136.314 105.071 136.423 104.463 136.561L104.551 136.951ZM106.348 136.63C107.143 136.528 107.786 136.452 108.278 136.401L108.237 136.003C107.74 136.054 107.093 136.131 106.297 136.233L106.348 136.63ZM108.28 136.4C108.786 136.343 109.184 136.246 109.448 136.094L109.248 135.747C109.058 135.857 108.728 135.947 108.235 136.003L108.28 136.4ZM109.446 136.095C109.756 135.921 109.897 135.617 109.897 135.239H109.497C109.497 135.508 109.406 135.659 109.25 135.746L109.446 136.095ZM109.897 135.239V135.17H109.497V135.239H109.897ZM109.897 135.17C109.897 134.293 109.656 133.583 109.149 133.07L108.865 133.351C109.278 133.769 109.497 134.367 109.497 135.17H109.897ZM109.15 133.071C108.645 132.552 107.893 132.311 106.936 132.311V132.711C107.831 132.711 108.461 132.936 108.864 133.35L109.15 133.071ZM106.936 132.311C105.949 132.311 105.147 132.527 104.555 132.984L104.8 133.3C105.299 132.916 106.003 132.711 106.936 132.711V132.311ZM104.555 132.984C103.992 133.418 103.584 133.89 103.346 134.404L103.708 134.573C103.913 134.132 104.272 133.707 104.8 133.3L104.555 132.984ZM103.594 134.3L101.685 133.618L101.551 133.995L103.46 134.677L103.594 134.3ZM101.802 133.886C102.132 133.115 102.568 132.525 103.105 132.107L102.859 131.791C102.259 132.259 101.786 132.908 101.434 133.728L101.802 133.886ZM103.105 132.106C103.658 131.674 104.258 131.374 104.907 131.205L104.806 130.818C104.102 131.001 103.453 131.326 102.858 131.791L103.105 132.106ZM104.908 131.205C105.574 131.027 106.227 130.939 106.868 130.939V130.539C106.19 130.539 105.502 130.632 104.805 130.818L104.908 131.205ZM106.868 130.939C107.273 130.939 107.743 130.988 108.28 131.089L108.354 130.695C107.8 130.592 107.304 130.539 106.868 130.539V130.939ZM108.282 131.089C108.808 131.181 109.316 131.374 109.808 131.669L110.013 131.326C109.482 131.007 108.928 130.796 108.351 130.695L108.282 131.089ZM109.808 131.669C110.29 131.955 110.695 132.389 111.022 132.983L111.373 132.79C111.018 132.145 110.565 131.653 110.013 131.325L109.808 131.669ZM111.022 132.983C111.341 133.562 111.509 134.354 111.509 135.375H111.909C111.909 134.316 111.736 133.449 111.373 132.79L111.022 132.983ZM111.509 135.375V144H111.909V135.375H111.509ZM111.709 143.8H109.697V144.2H111.709V143.8ZM109.897 144V142.227H109.497V144H109.897ZM109.697 142.027H109.595V142.427H109.697V142.027ZM109.415 142.141C109.291 142.398 109.08 142.685 108.771 142.999L109.056 143.279C109.383 142.946 109.626 142.624 109.775 142.314L109.415 142.141ZM108.771 142.999C108.475 143.3 108.075 143.563 107.564 143.782L107.722 144.15C108.269 143.915 108.716 143.626 109.056 143.279L108.771 142.999ZM107.564 143.782C107.068 143.996 106.451 144.107 105.709 144.107V144.507C106.489 144.507 107.162 144.391 107.722 144.15L107.564 143.782ZM106.016 142.7C106.837 142.7 107.544 142.539 108.126 142.205L107.928 141.858C107.419 142.149 106.785 142.3 106.016 142.3V142.7ZM108.126 142.205C108.705 141.877 109.147 141.449 109.446 140.919L109.097 140.723C108.839 141.182 108.452 141.561 107.928 141.857L108.126 142.205ZM109.445 140.921C109.745 140.397 109.897 139.843 109.897 139.261H109.497C109.497 139.77 109.365 140.256 109.098 140.721L109.445 140.921ZM109.897 139.261V137.42H109.497V139.261H109.897ZM109.544 137.292C109.526 137.314 109.485 137.348 109.403 137.389C109.324 137.428 109.217 137.469 109.079 137.51L109.191 137.894C109.343 137.849 109.474 137.8 109.582 137.746C109.688 137.693 109.784 137.629 109.851 137.548L109.544 137.292ZM109.081 137.509C108.805 137.586 108.483 137.656 108.113 137.717L108.179 138.112C108.559 138.049 108.896 137.976 109.189 137.894L109.081 137.509ZM108.116 137.717C107.748 137.774 107.389 137.825 107.038 137.87L107.09 138.267C107.443 138.221 107.806 138.169 108.177 138.112L108.116 137.717ZM107.041 137.869C106.694 137.909 106.412 137.944 106.194 137.972L106.246 138.369C106.461 138.341 106.741 138.307 107.087 138.267L107.041 137.869ZM106.194 137.972C105.66 138.042 105.158 138.155 104.69 138.313L104.818 138.692C105.259 138.543 105.735 138.435 106.246 138.369L106.194 137.972ZM104.692 138.313C104.216 138.47 103.821 138.711 103.516 139.04L103.81 139.312C104.062 139.039 104.395 138.832 104.817 138.693L104.692 138.313ZM103.516 139.04C103.201 139.382 103.054 139.839 103.054 140.386H103.454C103.454 139.911 103.58 139.561 103.81 139.312L103.516 139.04ZM103.054 140.386C103.054 141.142 103.338 141.736 103.916 142.136L104.144 141.807C103.687 141.491 103.454 141.028 103.454 140.386H103.054ZM103.918 142.137C104.482 142.517 105.185 142.7 106.016 142.7V142.3C105.244 142.3 104.623 142.13 104.142 141.806L103.918 142.137ZM117.391 144V144.2H117.591V144H117.391ZM115.38 144H115.18V144.2H115.38V144ZM115.38 130.909V130.709H115.18V130.909H115.38ZM117.323 130.909H117.523V130.709H117.323V130.909ZM117.323 132.955H117.123V133.155H117.323V132.955ZM117.494 132.955V133.155H117.622L117.675 133.038L117.494 132.955ZM118.891 131.352L119 131.52L119.001 131.52L118.891 131.352ZM123.638 131.284L123.543 131.46L123.544 131.46L123.638 131.284ZM125.19 132.92L125.011 133.01L125.011 133.011L125.19 132.92ZM125.744 144V144.2H125.944V144H125.744ZM123.732 144H123.532V144.2H123.732V144ZM122.931 133.415L122.784 133.55L122.785 133.551L122.931 133.415ZM119.011 132.963L118.914 132.788L118.913 132.788L119.011 132.963ZM117.826 134.182L117.65 134.086L117.65 134.086L117.826 134.182ZM117.191 136.125V144H117.591V136.125H117.191ZM117.391 143.8H115.38V144.2H117.391V143.8ZM115.58 144V130.909H115.18V144H115.58ZM115.38 131.109H117.323V130.709H115.38V131.109ZM117.123 130.909V132.955H117.523V130.909H117.123ZM117.323 133.155H117.494V132.755H117.323V133.155ZM117.675 133.038C117.966 132.409 118.406 131.903 119 131.52L118.783 131.184C118.127 131.608 117.635 132.171 117.312 132.871L117.675 133.038ZM119.001 131.52C119.584 131.138 120.35 130.939 121.312 130.939V130.539C120.297 130.539 119.448 130.749 118.782 131.185L119.001 131.52ZM121.312 130.939C122.17 130.939 122.912 131.115 123.543 131.46L123.734 131.109C123.036 130.726 122.226 130.539 121.312 130.539V130.939ZM123.544 131.46C124.169 131.797 124.658 132.311 125.011 133.01L125.368 132.83C124.982 132.064 124.437 131.487 123.733 131.108L123.544 131.46ZM125.011 133.011C125.362 133.702 125.544 134.589 125.544 135.682H125.944C125.944 134.548 125.756 133.594 125.368 132.83L125.011 133.011ZM125.544 135.682V144H125.944V135.682H125.544ZM125.744 143.8H123.732V144.2H125.744V143.8ZM123.932 144V135.818H123.532V144H123.932ZM123.932 135.818C123.932 134.755 123.656 133.9 123.078 133.279L122.785 133.551C123.275 134.078 123.532 134.824 123.532 135.818H123.932ZM123.078 133.279C122.499 132.651 121.709 132.345 120.732 132.345V132.745C121.619 132.745 122.295 133.019 122.784 133.55L123.078 133.279ZM120.732 132.345C120.06 132.345 119.453 132.491 118.914 132.788L119.107 133.138C119.58 132.878 120.12 132.745 120.732 132.745V132.345ZM118.913 132.788C118.378 133.086 117.957 133.521 117.65 134.086L118.002 134.277C118.275 133.774 118.643 133.397 119.108 133.138L118.913 132.788ZM117.65 134.086C117.341 134.656 117.191 135.339 117.191 136.125H117.591C117.591 135.389 117.731 134.776 118.002 134.277L117.65 134.086ZM132.197 148.807L132.265 148.618L132.263 148.618L132.197 148.807ZM130.45 147.835L130.581 147.684L130.581 147.684L130.45 147.835ZM129.351 146.557L129.236 146.393L129.084 146.5L129.179 146.66L129.351 146.557ZM130.953 145.432L131.112 145.311L130.996 145.158L130.838 145.268L130.953 145.432ZM131.643 146.25L131.793 146.117L131.792 146.116L131.643 146.25ZM132.786 147.06L132.872 146.879L132.871 146.879L132.786 147.06ZM137.32 146.642L137.439 146.803L137.439 146.803L137.32 146.642ZM138.351 141.58H138.551V141.38H138.351V141.58ZM138.18 141.58V141.38H138.069L138.01 141.474L138.18 141.58ZM137.55 142.466L137.392 142.343L137.391 142.344L137.55 142.466ZM136.391 143.395L136.485 143.571L136.486 143.571L136.391 143.395ZM131.516 143.045L131.413 143.217L131.413 143.217L131.516 143.045ZM129.53 140.864L129.351 140.954L129.352 140.955L129.53 140.864ZM129.513 133.884L129.693 133.969L129.694 133.969L129.513 133.884ZM131.482 131.565L131.59 131.733L131.591 131.733L131.482 131.565ZM136.425 131.165L136.326 131.339L136.328 131.34L136.425 131.165ZM137.584 132.119L137.423 132.239L137.426 132.242L137.584 132.119ZM138.214 132.989L138.047 133.098L138.106 133.189H138.214V132.989ZM138.419 132.989V133.189H138.619V132.989H138.419ZM138.419 130.909V130.709H138.219V130.909H138.419ZM140.362 130.909H140.562V130.709H140.362V130.909ZM139.595 147.119L139.433 147.002L139.432 147.003L139.595 147.119ZM137.55 148.679L137.478 148.492L137.477 148.493L137.55 148.679ZM136.68 141.435L136.57 141.268L136.57 141.268L136.68 141.435ZM137.95 139.841L138.135 139.918L138.135 139.918L137.95 139.841ZM137.959 134.855L138.145 134.782L138.145 134.782L137.959 134.855ZM136.697 133.159L136.579 133.32L136.579 133.32L136.697 133.159ZM132.504 133.193L132.383 133.034L132.382 133.035L132.504 133.193ZM131.234 134.932L131.048 134.859L131.048 134.86L131.234 134.932ZM131.243 139.764L131.058 139.84L131.058 139.841L131.243 139.764ZM132.521 141.401L132.406 141.564L132.408 141.565L132.521 141.401ZM134.703 148.982C133.748 148.982 132.937 148.859 132.265 148.619L132.13 148.995C132.856 149.255 133.715 149.382 134.703 149.382V148.982ZM132.263 148.618C131.584 148.38 131.025 148.068 130.581 147.684L130.319 147.986C130.808 148.409 131.413 148.745 132.131 148.996L132.263 148.618ZM130.581 147.684C130.135 147.298 129.783 146.888 129.522 146.454L129.179 146.66C129.464 147.135 129.846 147.577 130.32 147.987L130.581 147.684ZM129.466 146.721L131.068 145.596L130.838 145.268L129.236 146.393L129.466 146.721ZM130.794 145.553C130.98 145.798 131.214 146.075 131.495 146.384L131.792 146.116C131.516 145.812 131.29 145.543 131.112 145.311L130.794 145.553ZM131.494 146.383C131.795 146.72 132.199 147.005 132.7 147.241L132.871 146.879C132.406 146.66 132.049 146.405 131.793 146.117L131.494 146.383ZM132.699 147.24C133.224 147.49 133.896 147.609 134.703 147.609V147.209C133.931 147.209 133.324 147.095 132.872 146.879L132.699 147.24ZM134.703 147.609C135.793 147.609 136.71 147.345 137.439 146.803L137.2 146.482C136.555 146.962 135.727 147.209 134.703 147.209V147.609ZM137.439 146.803C138.191 146.243 138.551 145.374 138.551 144.239H138.151C138.151 145.285 137.823 146.018 137.2 146.482L137.439 146.803ZM138.551 144.239V141.58H138.151V144.239H138.551ZM138.351 141.38H138.18V141.78H138.351V141.38ZM138.01 141.474C137.868 141.705 137.662 141.994 137.392 142.343L137.708 142.588C137.983 142.233 138.198 141.932 138.35 141.685L138.01 141.474ZM137.391 142.344C137.146 142.662 136.784 142.955 136.296 143.219L136.486 143.571C137.009 143.289 137.419 142.963 137.708 142.588L137.391 142.344ZM136.296 143.218C135.836 143.464 135.197 143.595 134.362 143.595V143.995C135.232 143.995 135.945 143.86 136.485 143.571L136.296 143.218ZM134.362 143.595C133.338 143.595 132.425 143.354 131.618 142.874L131.413 143.217C132.288 143.737 133.272 143.995 134.362 143.995V143.595ZM131.618 142.874C130.818 142.395 130.181 141.697 129.708 140.773L129.352 140.955C129.856 141.939 130.542 142.696 131.413 143.217L131.618 142.874ZM129.708 140.773C129.243 139.853 129.005 138.727 129.005 137.386H128.605C128.605 138.773 128.851 139.965 129.351 140.954L129.708 140.773ZM129.005 137.386C129.005 136.069 129.237 134.932 129.693 133.969L129.332 133.798C128.845 134.824 128.605 136.022 128.605 137.386H129.005ZM129.694 133.969C130.151 132.999 130.784 132.256 131.59 131.733L131.373 131.398C130.497 131.965 129.818 132.768 129.332 133.798L129.694 133.969ZM131.591 131.733C132.396 131.205 133.329 130.939 134.396 130.939V130.539C133.259 130.539 132.249 130.824 131.372 131.398L131.591 131.733ZM134.396 130.939C135.229 130.939 135.867 131.078 136.326 131.339L136.524 130.991C135.982 130.683 135.268 130.539 134.396 130.539V130.939ZM136.328 131.34C136.816 131.608 137.178 131.909 137.424 132.239L137.744 132C137.456 131.613 137.045 131.278 136.521 130.99L136.328 131.34ZM137.426 132.242C137.697 132.592 137.903 132.877 138.047 133.098L138.382 132.88C138.23 132.646 138.016 132.351 137.742 131.997L137.426 132.242ZM138.214 133.189H138.419V132.789H138.214V133.189ZM138.619 132.989V130.909H138.219V132.989H138.619ZM138.419 131.109H140.362V130.709H138.419V131.109ZM140.162 130.909V144.375H140.562V130.909H140.162ZM140.162 144.375C140.162 145.47 139.914 146.34 139.433 147.002L139.757 147.237C140.3 146.489 140.562 145.53 140.562 144.375H140.162ZM139.432 147.003C138.951 147.68 138.301 148.176 137.478 148.492L137.621 148.866C138.514 148.523 139.228 147.979 139.758 147.235L139.432 147.003ZM137.477 148.493C136.651 148.818 135.727 148.982 134.703 148.982V149.382C135.77 149.382 136.744 149.211 137.623 148.865L137.477 148.493ZM134.635 142.189C135.473 142.189 136.195 141.997 136.791 141.601L136.57 141.268C136.052 141.611 135.411 141.789 134.635 141.789V142.189ZM136.791 141.601C137.385 141.207 137.832 140.643 138.135 139.918L137.766 139.764C137.489 140.425 137.09 140.923 136.57 141.268L136.791 141.601ZM138.135 139.918C138.437 139.195 138.585 138.337 138.585 137.352H138.185C138.185 138.299 138.043 139.101 137.766 139.764L138.135 139.918ZM138.585 137.352C138.585 136.389 138.44 135.531 138.145 134.782L137.773 134.928C138.046 135.622 138.185 136.429 138.185 137.352H138.585ZM138.145 134.782C137.849 134.03 137.407 133.432 136.816 132.998L136.579 133.32C137.102 133.704 137.501 134.237 137.773 134.928L138.145 134.782ZM136.816 132.998C136.219 132.559 135.488 132.345 134.635 132.345V132.745C135.419 132.745 136.063 132.941 136.579 133.32L136.816 132.998ZM134.635 132.345C133.748 132.345 132.993 132.571 132.383 133.034L132.625 133.352C133.152 132.952 133.818 132.745 134.635 132.745V132.345ZM132.382 133.035C131.788 133.491 131.344 134.101 131.048 134.859L131.421 135.005C131.693 134.308 132.095 133.759 132.626 133.352L132.382 133.035ZM131.048 134.86C130.759 135.613 130.617 136.445 130.617 137.352H131.017C131.017 136.487 131.153 135.705 131.421 135.003L131.048 134.86ZM130.617 137.352C130.617 138.282 130.762 139.112 131.058 139.84L131.428 139.689C131.156 139.018 131.017 138.241 131.017 137.352H130.617ZM131.058 139.841C131.361 140.566 131.81 141.143 132.406 141.564L132.637 141.237C132.108 140.863 131.704 140.349 131.427 139.687L131.058 139.841ZM132.408 141.565C133.016 141.985 133.762 142.189 134.635 142.189V141.789C133.826 141.789 133.163 141.6 132.635 141.236L132.408 141.565ZM145.638 143.838L145.553 144.019L145.554 144.02L145.638 143.838ZM144.027 142.466L143.86 142.576L143.861 142.577L144.027 142.466ZM143.874 138.46L144.042 138.567L144.043 138.566L143.874 138.46ZM146.695 136.756L146.737 136.951L146.739 136.951L146.695 136.756ZM148.51 136.432L148.484 136.233L148.484 136.234L148.51 136.432ZM150.445 136.202L150.465 136.401L150.467 136.4L150.445 136.202ZM151.536 135.92L151.438 135.746L151.436 135.747L151.536 135.92ZM151.195 133.21L151.051 133.35L151.052 133.351L151.195 133.21ZM146.865 133.142L146.987 133.3L146.987 133.3L146.865 133.142ZM145.714 134.489L145.647 134.677L145.819 134.738L145.896 134.573L145.714 134.489ZM143.805 133.807L143.622 133.728L143.538 133.924L143.738 133.995L143.805 133.807ZM145.169 131.949L145.292 132.107L145.292 132.106L145.169 131.949ZM147.044 131.011L147.094 131.205L147.096 131.205L147.044 131.011ZM150.504 130.892L150.467 131.089L150.47 131.089L150.504 130.892ZM152.098 131.497L151.995 131.669L151.996 131.669L152.098 131.497ZM153.385 132.886L153.21 132.983L153.21 132.983L153.385 132.886ZM153.896 144V144.2H154.096V144H153.896ZM151.885 144H151.685V144.2H151.885V144ZM151.885 142.227H152.085V142.027H151.885V142.227ZM151.783 142.227V142.027H151.657L151.602 142.141L151.783 142.227ZM151.101 143.139L151.244 143.279L151.244 143.279L151.101 143.139ZM149.831 143.966L149.752 143.782L149.752 143.782L149.831 143.966ZM150.214 142.031L150.116 141.857L150.115 141.858L150.214 142.031ZM151.459 140.821L151.285 140.721L151.285 140.723L151.459 140.821ZM151.885 137.42H152.085V136.868L151.731 137.292L151.885 137.42ZM151.322 137.702L151.376 137.894L151.379 137.894L151.322 137.702ZM150.334 137.915L150.364 138.112L150.367 138.112L150.334 137.915ZM149.251 138.068L149.274 138.267L149.277 138.267L149.251 138.068ZM148.408 138.17L148.434 138.369L148.434 138.369L148.408 138.17ZM146.942 138.503L147.004 138.693L147.006 138.692L146.942 138.503ZM145.851 139.176L145.704 139.04L145.704 139.04L145.851 139.176ZM146.217 141.972L146.103 142.136L146.106 142.137L146.217 141.972ZM147.896 144.107C147.092 144.107 146.369 143.956 145.722 143.657L145.554 144.02C146.259 144.346 147.041 144.507 147.896 144.507V144.107ZM145.723 143.657C145.078 143.354 144.57 142.92 144.193 142.355L143.861 142.577C144.279 143.205 144.845 143.686 145.553 144.019L145.723 143.657ZM144.194 142.356C143.821 141.792 143.63 141.104 143.63 140.284H143.23C143.23 141.168 143.437 141.936 143.86 142.576L144.194 142.356ZM143.63 140.284C143.63 139.559 143.773 138.992 144.042 138.567L143.705 138.353C143.383 138.861 143.23 139.509 143.23 140.284H143.63ZM144.043 138.566C144.32 138.124 144.689 137.779 145.153 137.528L144.963 137.176C144.439 137.46 144.018 137.853 143.704 138.354L144.043 138.566ZM145.153 137.528C145.63 137.271 146.157 137.078 146.737 136.951L146.652 136.56C146.039 136.695 145.475 136.9 144.963 137.176L145.153 137.528ZM146.739 136.951C147.335 136.816 147.934 136.709 148.536 136.63L148.484 136.234C147.87 136.314 147.259 136.423 146.65 136.561L146.739 136.951ZM148.535 136.63C149.33 136.528 149.973 136.452 150.465 136.401L150.424 136.003C149.927 136.054 149.281 136.131 148.484 136.233L148.535 136.63ZM150.467 136.4C150.974 136.343 151.371 136.246 151.635 136.094L151.436 135.747C151.245 135.857 150.915 135.947 150.422 136.003L150.467 136.4ZM151.633 136.095C151.944 135.921 152.085 135.617 152.085 135.239H151.685C151.685 135.508 151.593 135.659 151.438 135.746L151.633 136.095ZM152.085 135.239V135.17H151.685V135.239H152.085ZM152.085 135.17C152.085 134.293 151.844 133.583 151.337 133.07L151.052 133.351C151.466 133.769 151.685 134.367 151.685 135.17H152.085ZM151.338 133.071C150.832 132.552 150.081 132.311 149.124 132.311V132.711C150.019 132.711 150.648 132.936 151.051 133.35L151.338 133.071ZM149.124 132.311C148.136 132.311 147.335 132.527 146.743 132.984L146.987 133.3C147.486 132.916 148.19 132.711 149.124 132.711V132.311ZM146.743 132.984C146.18 133.418 145.772 133.89 145.533 134.404L145.896 134.573C146.1 134.132 146.46 133.707 146.987 133.3L146.743 132.984ZM145.782 134.3L143.873 133.618L143.738 133.995L145.647 134.677L145.782 134.3ZM143.989 133.886C144.32 133.115 144.755 132.525 145.292 132.107L145.046 131.791C144.446 132.259 143.973 132.908 143.622 133.728L143.989 133.886ZM145.292 132.106C145.846 131.674 146.446 131.374 147.094 131.205L146.994 130.818C146.29 131.001 145.64 131.326 145.046 131.791L145.292 132.106ZM147.096 131.205C147.762 131.027 148.415 130.939 149.055 130.939V130.539C148.378 130.539 147.69 130.632 146.993 130.818L147.096 131.205ZM149.055 130.939C149.46 130.939 149.93 130.988 150.467 131.089L150.541 130.695C149.987 130.592 149.491 130.539 149.055 130.539V130.939ZM150.47 131.089C150.995 131.181 151.503 131.374 151.995 131.669L152.201 131.326C151.67 131.007 151.116 130.796 150.539 130.695L150.47 131.089ZM151.996 131.669C152.477 131.955 152.883 132.389 153.21 132.983L153.56 132.79C153.205 132.145 152.753 131.653 152.2 131.325L151.996 131.669ZM153.21 132.983C153.529 133.562 153.696 134.354 153.696 135.375H154.096C154.096 134.316 153.923 133.449 153.56 132.79L153.21 132.983ZM153.696 135.375V144H154.096V135.375H153.696ZM153.896 143.8H151.885V144.2H153.896V143.8ZM152.085 144V142.227H151.685V144H152.085ZM151.885 142.027H151.783V142.427H151.885V142.027ZM151.602 142.141C151.479 142.398 151.267 142.685 150.958 142.999L151.244 143.279C151.571 142.946 151.814 142.624 151.963 142.314L151.602 142.141ZM150.958 142.999C150.662 143.3 150.263 143.563 149.752 143.782L149.91 144.15C150.456 143.915 150.903 143.626 151.244 143.279L150.958 142.999ZM149.752 143.782C149.255 143.996 148.639 144.107 147.896 144.107V144.507C148.676 144.507 149.35 144.391 149.91 144.15L149.752 143.782ZM148.203 142.7C149.024 142.7 149.731 142.539 150.314 142.205L150.115 141.858C149.607 142.149 148.973 142.3 148.203 142.3V142.7ZM150.313 142.205C150.892 141.877 151.335 141.449 151.633 140.919L151.285 140.723C151.026 141.182 150.639 141.561 150.116 141.857L150.313 142.205ZM151.632 140.921C151.933 140.397 152.085 139.843 152.085 139.261H151.685C151.685 139.77 151.553 140.256 151.285 140.721L151.632 140.921ZM152.085 139.261V137.42H151.685V139.261H152.085ZM151.731 137.292C151.714 137.314 151.673 137.348 151.591 137.389C151.511 137.428 151.404 137.469 151.266 137.51L151.379 137.894C151.531 137.849 151.662 137.8 151.77 137.746C151.876 137.693 151.971 137.629 152.039 137.548L151.731 137.292ZM151.269 137.509C150.993 137.586 150.671 137.656 150.301 137.717L150.367 138.112C150.747 138.049 151.084 137.976 151.376 137.894L151.269 137.509ZM150.303 137.717C149.936 137.774 149.576 137.825 149.226 137.87L149.277 138.267C149.631 138.221 149.993 138.169 150.364 138.112L150.303 137.717ZM149.229 137.869C148.881 137.909 148.599 137.944 148.382 137.972L148.434 138.369C148.648 138.341 148.928 138.307 149.274 138.267L149.229 137.869ZM148.382 137.972C147.847 138.042 147.346 138.155 146.878 138.313L147.006 138.692C147.447 138.543 147.923 138.435 148.434 138.369L148.382 137.972ZM146.879 138.313C146.403 138.47 146.009 138.711 145.704 139.04L145.998 139.312C146.25 139.039 146.583 138.832 147.004 138.693L146.879 138.313ZM145.704 139.04C145.389 139.382 145.242 139.839 145.242 140.386H145.642C145.642 139.911 145.768 139.561 145.998 139.312L145.704 139.04ZM145.242 140.386C145.242 141.142 145.526 141.736 146.103 142.136L146.331 141.807C145.875 141.491 145.642 141.028 145.642 140.386H145.242ZM146.106 142.137C146.669 142.517 147.373 142.7 148.203 142.7V142.3C147.431 142.3 146.811 142.13 146.329 141.806L146.106 142.137Z" fill="#BDFED5" mask="url(#path-4-outside-2_1_11)"/>
<path d="M71.25 82H90.75" stroke="#BDFED5" stroke-width="2" stroke-linecap="round" stroke-linejoin="round"/>
<path d="M81 72.25V91.75" stroke="#BDFED5" stroke-width="2" stroke-linecap="round" stroke-linejoin="round"/>
<path d="M107 85.25C107 101.5 95.625 109.625 82.105 114.338C81.397 114.577 80.628 114.566 79.9275 114.305C66.375 109.625 55 101.5 55 85.25V62.5C55 61.638 55.3424 60.8114 55.9519 60.2019C56.5614 59.5924 57.388 59.25 58.25 59.25C64.75 59.25 72.875 55.35 78.53 50.41C79.2185 49.8217 80.0944 49.4985 81 49.4985C81.9056 49.4985 82.7815 49.8217 83.47 50.41C89.1575 55.3825 97.25 59.25 103.75 59.25C104.612 59.25 105.439 59.5924 106.048 60.2019C106.658 60.8114 107 61.638 107 62.5V85.25Z" stroke="#BDFED5" stroke-width="4" stroke-linecap="round" stroke-linejoin="round"/>
</g>
<defs>
<filter id="filter0_dd_1_11" x="-4" y="0" width="171" height="170" filterUnits="userSpaceOnUse" color-interpolation-filters="sRGB">
<feFlood flood-opacity="0" result="BackgroundImageFix"/>
<feColorMatrix in="SourceAlpha" type="matrix" values="0 0 0 0 0 0 0 0 0 0 0 0 0 0 0 0 0 0 127 0" result="hardAlpha"/>
<feOffset dy="4"/>
<feGaussianBlur stdDeviation="2"/>
<feComposite in2="hardAlpha" operator="out"/>
<feColorMatrix type="matrix" values="0 0 0 0 0 0 0 0 0 0 0 0 0 0 0 0 0 0 0.25 0"/>
<feBlend mode="normal" in2="BackgroundImageFix" result="effect1_dropShadow_1_11"/>
<feColorMatrix in="SourceAlpha" type="matrix" values="0 0 0 0 0 0 0 0 0 0 0 0 0 0 0 0 0 0 127 0" result="hardAlpha"/>
<feOffset dy="4"/>
<feGaussianBlur stdDeviation="2"/>
<feComposite in2="hardAlpha" operator="out"/>
<feColorMatrix type="matrix" values="0 0 0 0 0 0 0 0 0 0 0 0 0 0 0 0 0 0 0.25 0"/>
<feBlend mode="normal" in2="effect1_dropShadow_1_11" result="effect2_dropShadow_1_11"/>
<feBlend mode="normal" in="SourceGraphic" in2="effect2_dropShadow_1_11" result="shape"/>
</filter>
<clipPath id="clip0_1_11">
<rect width="163" height="162" fill="white"/>
</clipPath>
</defs>
</svg>
